<?xml version="1.0" encoding="UTF-8" standalone="no"?>
<svg
   xmlns:dc="http://purl.org/dc/elements/1.1/"
   xmlns:cc="http://creativecommons.org/ns#"
   xmlns:rdf="http://www.w3.org/1999/02/22-rdf-syntax-ns#"
   xmlns:svg="http://www.w3.org/2000/svg"
   xmlns="http://www.w3.org/2000/svg"
   viewBox="0 0 1122.52 793.70667"
   height="793.70667"
   width="1122.52"
   xml:space="preserve"
   id="svg2"
   version="1.1"><metadata
     id="metadata8"><rdf:RDF><cc:Work
         rdf:about=""><dc:format>image/svg+xml</dc:format><dc:type
           rdf:resource="http://purl.org/dc/dcmitype/StillImage" /></cc:Work></rdf:RDF></metadata><defs
     id="defs6"><clipPath
       id="clipPath18"
       clipPathUnits="userSpaceOnUse"><path
         id="path16"
         d="M 0,595.28 H 841.89 V 0 H 0 Z" /></clipPath><linearGradient
       id="linearGradient56"
       spreadMethod="pad"
       gradientTransform="matrix(-94.320877,-29.606348,-29.606348,94.320877,543.41461,424.74713)"
       gradientUnits="userSpaceOnUse"
       y2="0"
       x2="1"
       y1="0"
       x1="0"><stop
         id="stop48"
         offset="0"
         style="stop-opacity:1;stop-color:#f2ef1d" /><stop
         id="stop50"
         offset="0.364061"
         style="stop-opacity:1;stop-color:#80cc28" /><stop
         id="stop52"
         offset="0.940532"
         style="stop-opacity:1;stop-color:#27963c" /><stop
         id="stop54"
         offset="1"
         style="stop-opacity:1;stop-color:#27963c" /></linearGradient><clipPath
       id="clipPath66"
       clipPathUnits="userSpaceOnUse"><path
         id="path64"
         d="M 0,595.28 H 841.89 V 0 H 0 Z" /></clipPath><linearGradient
       id="linearGradient100"
       spreadMethod="pad"
       gradientTransform="matrix(-335.67929,220.49806,220.49806,335.67929,563.0777,148.84207)"
       gradientUnits="userSpaceOnUse"
       y2="0"
       x2="1"
       y1="0"
       x1="0"><stop
         id="stop92"
         offset="0"
         style="stop-opacity:1;stop-color:#f2ef1d" /><stop
         id="stop94"
         offset="0.364061"
         style="stop-opacity:1;stop-color:#80cc28" /><stop
         id="stop96"
         offset="0.940532"
         style="stop-opacity:1;stop-color:#27963c" /><stop
         id="stop98"
         offset="1"
         style="stop-opacity:1;stop-color:#27963c" /></linearGradient><clipPath
       id="clipPath110"
       clipPathUnits="userSpaceOnUse"><path
         id="path108"
         d="M 0,595.28 H 841.89 V 0 H 0 Z" /></clipPath></defs><g
     transform="matrix(1.3333333,0,0,-1.3333333,0,793.70667)"
     id="g10"><g
       id="g12"><g
         clip-path="url(#clipPath18)"
         id="g14"><g
           transform="translate(640.345,197.1582)"
           id="g20"><path
             id="path22"
             style="fill:#040606;fill-opacity:1;fill-rule:nonzero;stroke:none"
             d="m 0,0 c -0.955,6.118 -4.073,11.519 -8.779,15.206 -4.181,3.276 -9.428,5.08 -14.777,5.08 -1.558,0 -3.113,-0.154 -4.618,-0.459 -1.915,-0.388 -3.716,-0.981 -5.383,-1.769 -0.792,2.436 -1.563,5.047 -2.328,7.873 -1.798,6.643 -3.419,13.812 -5.257,23.245 l -0.127,0.655 c -0.882,4.525 -1.716,8.801 -2.223,13.037 -0.145,1.204 -0.445,3.711 -1.963,6.25 -2.336,3.908 -6.522,6.241 -11.197,6.241 -1.066,0 -2.003,-0.112 -2.857,-0.234 -3.339,-0.477 -6.698,-0.743 -9.985,-0.792 -0.969,-0.015 -1.84,-0.026 -2.704,-0.026 -1.632,0 -2.908,0.046 -4.018,0.144 -0.501,0.045 -0.975,0.068 -1.448,0.068 -1.546,0 -3.008,-0.245 -4.359,-0.696 -1.415,0.531 -2.949,0.822 -4.549,0.822 -0.392,0 -0.711,-0.016 -0.946,-0.031 l -0.097,-0.006 c -0.285,-0.016 -0.571,-0.036 -0.855,-0.062 l -2.413,-0.226 -1.957,-0.182 c -2.822,-0.263 -5.794,-0.511 -8.803,-0.659 7.311,9.079 10.452,20.067 8.984,32.209 -0.359,2.973 -0.964,5.661 -1.748,8.1 0.163,-0.048 0.325,-0.098 0.491,-0.139 0.169,-0.041 0.331,-0.081 0.49,-0.121 0.463,-0.116 0.988,-0.248 1.59,-0.375 1.963,-0.413 4.119,-0.795 6.586,-0.795 1.479,0 2.938,0.144 4.337,0.427 6.671,1.349 11.621,5.984 13.582,12.717 1.352,4.65 -0.117,9.693 -3.744,12.852 -0.618,0.539 -1.182,0.965 -1.592,1.276 -0.035,0.026 -0.069,0.052 -0.104,0.078 -0.137,0.115 -0.278,0.228 -0.421,0.337 l -0.52,0.396 -0.426,0.325 c -0.082,0.062 -0.165,0.124 -0.248,0.184 -0.045,0.033 -0.089,0.066 -0.134,0.098 l -0.498,0.361 -0.342,0.249 c -0.148,0.107 -0.297,0.211 -0.449,0.31 -0.24,0.174 -0.496,0.343 -0.758,0.508 -0.593,0.452 -1.233,0.859 -1.919,1.214 -0.087,0.044 -0.32,0.178 -0.491,0.276 -0.846,0.486 -2.127,1.22 -3.752,1.812 -2.565,0.935 -5.093,1.82 -7.55,2.641 0.65,0.866 1.31,1.761 1.987,2.697 1.085,1.502 1.689,2.911 2.064,3.836 0.374,0.567 0.703,1.168 0.984,1.8 0.275,0.621 0.511,1.198 0.718,1.706 0.106,0.26 0.212,0.52 0.321,0.777 l 0.476,1.124 c 0.95,2.242 1.932,4.559 2.905,6.816 0.244,0.565 0.515,1.163 0.803,1.796 0.309,0.677 0.628,1.378 0.952,2.124 0.355,0.82 0.664,1.59 0.963,2.334 0.422,1.054 0.822,2.051 1.189,2.746 2.619,4.967 5.045,9.393 7.416,13.531 5.542,9.676 12.066,19.702 19.945,30.653 0.491,0.681 0.982,1.359 1.473,2.038 l 0.628,0.869 c 0.11,0.152 0.217,0.306 0.318,0.462 0.11,0.137 0.217,0.277 0.323,0.419 2.651,2.796 3.86,6.779 3.033,10.715 l -0.035,0.167 -0.032,0.149 c -0.537,2.556 -1.872,4.777 -3.709,6.433 -0.298,0.389 -0.614,0.769 -0.965,1.126 -0.116,0.117 -0.226,0.241 -0.338,0.362 -0.608,0.66 -1.526,1.657 -2.78,2.645 -1.059,0.835 -2.116,1.674 -3.173,2.513 -3.573,2.836 -7.268,5.768 -11.096,8.579 -7.591,5.573 -15.515,10.395 -22.265,14.377 -7.186,4.239 -16.792,9.671 -27.372,14.086 -5.338,2.228 -10.256,3.97 -15.035,5.326 -6.131,1.739 -11.947,2.875 -17.78,3.474 -3.073,0.315 -6.057,0.467 -9.124,0.467 -1.021,0 -2.063,-0.017 -3.096,-0.052 -4.118,-0.139 -7.876,-2.383 -9.952,-5.943 -0.732,-1.255 -1.212,-2.612 -1.452,-4.002 -0.117,-0.271 -0.233,-0.543 -0.352,-0.814 -0.566,-1.291 -1.209,-2.755 -1.771,-4.435 -0.741,-2.214 -1.427,-4.418 -2.09,-6.549 -0.534,-1.717 -1.039,-3.339 -1.569,-4.962 -0.804,-2.463 -1.686,-5.001 -2.696,-7.759 -0.815,-2.229 -1.662,-4.426 -2.558,-6.752 -0.288,-0.745 -0.574,-1.49 -0.86,-2.236 -0.394,-1.03 -0.795,-2.06 -1.194,-3.089 -0.705,-1.815 -1.435,-3.692 -2.141,-5.584 -0.717,-1.921 -1.421,-3.857 -2.102,-5.73 -0.689,-1.891 -1.401,-3.848 -2.109,-5.741 -0.93,-2.49 -1.782,-4.742 -2.701,-6.915 -0.063,-0.096 -0.14,-0.21 -0.203,-0.303 -0.307,-0.454 -0.689,-1.02 -1.093,-1.705 -0.609,-1.034 -1.012,-1.958 -1.278,-2.569 l -0.092,-0.209 -0.022,-0.052 c -0.336,-0.76 -0.678,-1.531 -1.02,-2.311 -2.041,-1.849 -3.593,-4.092 -4.736,-6.827 -0.61,0.511 -1.219,1.022 -1.829,1.531 -1.049,0.876 -2.149,1.614 -3.29,2.219 -0.77,0.628 -1.62,1.167 -2.539,1.593 l -3.558,1.645 c -0.449,0.208 -0.908,0.383 -1.373,0.532 -0.608,0.218 -1.238,0.392 -1.894,0.513 -0.092,0.017 -0.184,0.037 -0.276,0.057 -0.632,0.132 -1.586,0.333 -2.77,0.428 -0.407,0.033 -0.817,0.05 -1.22,0.05 -5.866,0 -10.955,-3.361 -13.281,-8.771 -0.711,-1.654 -1.167,-3.349 -1.356,-5.041 -0.075,-0.675 -0.114,-1.349 -0.136,-2.022 -10.508,-2.375 -22.073,-4.144 -34.503,-5.27 -3.33,-0.302 -6.383,-1.981 -8.422,-4.632 -0.218,-0.283 -0.418,-0.576 -0.608,-0.874 -0.697,6.098 -1.15,11.667 -1.38,16.987 -0.317,7.324 -0.23,13.65 0.278,19.452 3.361,-2.204 7.257,-3.598 11.642,-4.158 1.482,-0.19 2.986,-0.286 4.474,-0.286 5.725,0 11.516,1.418 17.212,4.215 8.026,3.94 13.926,10.284 17.064,18.343 3.256,8.366 3.154,17.158 -0.302,26.132 -2.667,6.923 -7.376,12.498 -13.619,16.124 -6.002,3.485 -12.739,5.252 -20.024,5.252 -2.436,0 -4.984,-0.199 -7.574,-0.592 -3.458,-0.526 -6.51,-1.505 -9.293,-2.485 -6.098,-2.146 -11.7,-5.4 -16.651,-9.67 -5.585,-4.817 -10.237,-10.871 -13.825,-17.995 -4.187,-8.31 -6.98,-17.758 -8.539,-28.882 -0.942,-6.725 -1.388,-13.868 -1.364,-21.838 0.017,-5.474 0.27,-11.107 0.768,-17.01 -3.247,2.952 -7.021,3.238 -8.346,3.238 -1.225,0 -2.443,-0.181 -3.621,-0.538 -2.642,-0.8 -4.836,-2.373 -6.398,-4.445 -0.118,0.744 -0.225,1.494 -0.314,2.243 -0.166,3.901 -1.796,6.839 -3.897,8.848 -0.022,0.047 -0.039,0.095 -0.062,0.142 -1.955,4.051 -6.013,6.667 -10.509,6.775 -0.113,0.002 -0.225,0.004 -0.334,0.004 -3.309,0 -5.609,-1.184 -6.415,-1.61 -2.039,-1.017 -3.876,-1.817 -5.61,-2.444 -3.518,-1.27 -7.084,-2.228 -10.599,-2.847 -0.3,-0.053 -0.595,-0.102 -0.885,-0.148 0.063,2.626 -0.642,5.14 -2.098,7.478 -2.955,4.774 -7.745,7.879 -13.497,8.759 -1.086,0.166 -2.19,0.25 -3.281,0.25 -4.428,0 -8.804,-1.373 -13.007,-4.083 -6.724,-4.336 -10.608,-11.689 -10.388,-19.671 0.192,-6.984 3.457,-13.288 8.87,-17.36 -0.728,-0.666 -1.432,-1.352 -2.108,-2.065 -10.134,-10.689 -13.274,-23.472 -9.083,-36.967 1.647,-5.303 4.625,-9.849 8.85,-13.512 5.778,-5.01 12.822,-7.62 20.937,-7.757 0.197,-0.004 0.395,-0.005 0.593,-0.005 6.098,0 12.16,1.607 18.02,4.776 3.566,1.928 6.572,4.352 8.985,7.24 0.879,-2.101 1.734,-4.169 2.561,-6.174 2.121,-5.148 4.224,-10.46 6.429,-16.239 2.235,-5.857 4.19,-11.234 5.976,-16.441 1.333,-3.881 2.524,-7.376 3.603,-10.847 1.341,-4.309 2.473,-8.163 3.461,-11.783 0.512,-1.878 1.053,-3.894 1.579,-5.967 -0.053,-0.006 -0.11,-0.015 -0.163,-0.021 -2.354,-0.254 -4.708,-0.382 -6.995,-0.382 -1.328,0 -2.666,0.043 -3.976,0.129 -0.305,0.02 -0.603,0.041 -0.895,0.066 0.684,2.536 0.595,5.144 -0.265,7.761 -1.74,5.34 -5.657,9.492 -11.036,11.71 -2.637,1.088 -5.431,1.64 -8.304,1.64 -2.754,0 -5.511,-0.491 -8.428,-1.501 -7.561,-2.618 -13.077,-8.841 -14.757,-16.647 -1.469,-6.83 0.209,-13.729 4.501,-18.968 -0.865,-0.475 -1.711,-0.974 -2.537,-1.507 -12.379,-7.981 -18.461,-19.655 -17.589,-33.759 0.343,-5.542 2.158,-10.664 5.395,-15.225 4.424,-6.237 10.649,-10.443 18.5,-12.5 2.906,-0.762 5.926,-1.148 8.978,-1.148 3.326,0 6.77,0.461 10.235,1.369 3.922,1.029 7.417,2.671 10.447,4.904 0.355,-2.249 0.695,-4.462 1.023,-6.606 0.839,-5.498 1.623,-11.156 2.396,-17.3 0.781,-6.215 1.405,-11.903 1.908,-17.388 0.374,-4.088 0.702,-7.767 0.928,-11.392 0.28,-4.498 0.466,-8.511 0.567,-12.268 0.119,-4.392 0.226,-9.483 -0.01,-14.336 l -0.002,-0.043 c -0.054,-1.117 -0.115,-2.384 -0.068,-3.819 0.234,-7.105 5.906,-12.671 12.911,-12.671 1.869,0 3.7,0.393 5.444,1.167 1.527,0.678 2.619,1.476 3.205,1.906 l 0.062,0.045 c 6.378,4.649 12.238,8.239 17.915,10.97 1.246,0.6 2.582,1.246 3.907,1.911 3.407,1.708 5.78,4.259 6.974,7.377 1.089,-0.302 2.234,-0.461 3.412,-0.461 3.419,0 5.985,1.335 7.618,2.339 3.629,2.233 6.689,3.855 9.63,5.106 1.963,0.835 4.066,1.593 6.293,2.395 0.852,0.307 1.703,0.614 2.552,0.926 2.198,0.81 5.876,2.165 8.343,6.2 2.461,4.026 1.992,7.899 1.711,10.212 l -0.01,0.083 c -0.269,2.226 -0.519,4.484 -0.748,6.757 2.615,-1.707 5.463,-3.031 8.534,-3.957 3.314,-1 6.845,-1.507 10.492,-1.507 1.354,0 2.76,0.071 4.178,0.208 8.909,0.863 16.82,4.465 23.511,10.705 0.465,0.434 0.918,0.88 1.365,1.331 1.666,-0.815 3.51,-1.256 5.412,-1.256 2.266,0 4.021,0.623 4.95,1.018 l 1.077,0.371 c 2.966,1.023 5.768,1.988 8.586,2.853 4.365,1.34 7.998,2.415 11.584,3.015 2.745,0.398 5.181,1.662 7.024,3.509 1.393,-0.472 2.797,-0.683 4.09,-0.683 1.769,0 3.203,0.349 4.256,0.653 1.61,0.465 3.428,0.844 5.186,1.21 3.169,0.661 6.103,1.116 8.972,1.392 1.595,0.155 2.972,0.521 4.163,1.007 0.287,-0.019 0.574,-0.032 0.864,-0.032 1.073,0 2.125,0.136 3.216,0.414 l 0.522,0.134 c 0.472,0.121 0.943,0.243 1.417,0.356 5.232,1.247 10.835,1.85 15.625,2.274 1.038,0.092 2.087,0.171 3.198,0.254 0.581,0.043 1.163,0.087 1.744,0.131 0.803,0.063 1.584,0.198 2.337,0.397 0.028,-0.046 0.056,-0.091 0.084,-0.137 4.276,-6.881 10.119,-11.637 17.368,-14.137 3.961,-1.367 8.145,-2.059 12.435,-2.059 2.561,0 5.212,0.248 7.88,0.737 5.369,0.986 10.002,3.076 13.769,6.214 4.996,4.161 8.301,9.326 9.779,15.107 3.336,-3.902 7.242,-6.975 11.672,-9.165 4.406,-2.181 9.371,-3.466 14.755,-3.82 0.914,-0.059 1.824,-0.09 2.703,-0.09 4.381,0 8.511,0.762 12.278,2.264 5.967,2.379 10.776,6.473 13.908,11.839 C -0.211,-12.634 0.976,-6.242 0,0" /></g><g
           transform="translate(634.6761,202.8282)"
           id="g24"><path
             id="path26"
             style="fill:#ffffff;fill-opacity:1;fill-rule:nonzero;stroke:none"
             d="m 0,0 c -0.956,6.117 -4.074,11.518 -8.78,15.206 -4.18,3.275 -9.427,5.08 -14.776,5.08 -1.559,0 -3.113,-0.154 -4.619,-0.46 -1.914,-0.388 -3.715,-0.981 -5.382,-1.769 -0.793,2.437 -1.564,5.048 -2.329,7.874 -1.798,6.642 -3.418,13.811 -5.256,23.244 l -0.128,0.655 c -0.881,4.526 -1.715,8.802 -2.223,13.038 -0.145,1.204 -0.445,3.71 -1.962,6.25 -2.336,3.907 -6.523,6.241 -11.197,6.241 h -10e-4 c -1.065,0 -2.002,-0.113 -2.857,-0.235 -3.338,-0.477 -6.697,-0.743 -9.985,-0.792 -0.968,-0.014 -1.84,-0.026 -2.704,-0.026 -1.631,0 -2.907,0.046 -4.017,0.145 -0.502,0.045 -0.975,0.067 -1.448,0.067 -1.546,0 -3.008,-0.245 -4.359,-0.696 -1.416,0.532 -2.949,0.823 -4.549,0.823 -0.392,0 -0.711,-0.017 -0.946,-0.032 l -0.098,-0.006 c -0.285,-0.016 -0.57,-0.035 -0.854,-0.061 l -2.413,-0.226 -1.958,-0.183 c -2.821,-0.263 -5.793,-0.511 -8.802,-0.658 7.31,9.078 10.451,20.066 8.984,32.209 -0.36,2.972 -0.964,5.661 -1.749,8.099 0.164,-0.047 0.326,-0.098 0.492,-0.138 0.169,-0.041 0.331,-0.082 0.489,-0.122 0.464,-0.116 0.989,-0.248 1.591,-0.375 1.963,-0.412 4.119,-0.794 6.586,-0.794 1.479,0 2.938,0.143 4.337,0.426 6.67,1.349 11.62,5.985 13.582,12.717 1.352,4.65 -0.118,9.693 -3.745,12.853 -0.617,0.538 -1.181,0.964 -1.592,1.275 -0.034,0.027 -0.068,0.053 -0.103,0.078 -0.137,0.115 -0.278,0.228 -0.421,0.337 l -0.52,0.396 -0.426,0.325 c -0.083,0.063 -0.165,0.124 -0.249,0.184 -0.044,0.033 -0.088,0.066 -0.133,0.098 l -0.498,0.362 -0.343,0.249 c -0.148,0.107 -0.297,0.21 -0.449,0.31 -0.24,0.173 -0.495,0.342 -0.758,0.507 -0.592,0.452 -1.233,0.86 -1.919,1.214 -0.086,0.045 -0.32,0.179 -0.49,0.276 -0.847,0.486 -2.127,1.22 -3.753,1.813 -2.564,0.935 -5.093,1.819 -7.549,2.64 0.65,0.867 1.31,1.761 1.987,2.698 1.085,1.501 1.689,2.911 2.063,3.836 0.374,0.566 0.704,1.167 0.985,1.8 0.274,0.62 0.51,1.197 0.718,1.706 0.105,0.259 0.211,0.519 0.32,0.777 l 0.477,1.123 c 0.95,2.242 1.932,4.559 2.905,6.816 0.243,0.566 0.515,1.163 0.803,1.796 0.309,0.677 0.628,1.378 0.952,2.124 0.355,0.821 0.664,1.59 0.962,2.334 0.423,1.055 0.823,2.051 1.189,2.746 2.619,4.967 5.045,9.393 7.416,13.532 5.543,9.675 12.067,19.702 19.946,30.652 0.49,0.681 0.981,1.36 1.472,2.038 l 0.629,0.869 c 0.11,0.152 0.216,0.306 0.318,0.463 0.11,0.137 0.217,0.276 0.323,0.418 2.65,2.797 3.859,6.78 3.033,10.715 l -0.035,0.167 -0.033,0.15 c -0.536,2.556 -1.871,4.777 -3.708,6.432 -0.298,0.39 -0.614,0.77 -0.965,1.127 -0.117,0.117 -0.226,0.24 -0.338,0.362 -0.608,0.659 -1.527,1.657 -2.78,2.645 -1.059,0.835 -2.116,1.673 -3.173,2.512 -3.574,2.836 -7.268,5.769 -11.096,8.579 -7.591,5.574 -15.515,10.395 -22.266,14.377 -7.185,4.24 -16.791,9.672 -27.371,14.086 -5.338,2.228 -10.257,3.97 -15.035,5.326 -6.131,1.74 -11.947,2.876 -17.781,3.474 -3.072,0.315 -6.056,0.468 -9.123,0.468 -1.021,0 -2.063,-0.018 -3.096,-0.053 -4.118,-0.138 -7.877,-2.383 -9.952,-5.943 -0.732,-1.255 -1.213,-2.612 -1.452,-4.002 -0.118,-0.271 -0.233,-0.542 -0.352,-0.813 -0.567,-1.292 -1.21,-2.755 -1.771,-4.436 -0.742,-2.214 -1.427,-4.418 -2.09,-6.549 -0.535,-1.717 -1.039,-3.339 -1.57,-4.961 -0.803,-2.464 -1.685,-5.002 -2.695,-7.76 -0.816,-2.229 -1.663,-4.426 -2.558,-6.752 -0.288,-0.745 -0.575,-1.49 -0.86,-2.235 -0.395,-1.031 -0.795,-2.06 -1.195,-3.089 -0.704,-1.815 -1.434,-3.692 -2.14,-5.585 -0.717,-1.921 -1.422,-3.857 -2.102,-5.729 -0.689,-1.892 -1.401,-3.848 -2.109,-5.742 -0.931,-2.49 -1.782,-4.742 -2.701,-6.915 -0.063,-0.095 -0.141,-0.209 -0.204,-0.303 -0.307,-0.454 -0.689,-1.019 -1.092,-1.705 -0.609,-1.034 -1.013,-1.957 -1.279,-2.569 l -0.091,-0.208 -0.023,-0.052 c -0.336,-0.76 -0.677,-1.532 -1.019,-2.311 -2.042,-1.849 -3.593,-4.093 -4.736,-6.827 -0.611,0.51 -1.219,1.021 -1.829,1.531 -1.049,0.876 -2.149,1.613 -3.29,2.219 -0.77,0.627 -1.62,1.166 -2.539,1.592 l -3.559,1.646 c -0.448,0.207 -0.907,0.382 -1.373,0.531 -0.607,0.218 -1.238,0.392 -1.893,0.513 -0.092,0.017 -0.184,0.038 -0.277,0.057 -0.631,0.133 -1.585,0.334 -2.769,0.429 -0.407,0.032 -0.817,0.049 -1.221,0.049 -5.865,0 -10.955,-3.361 -13.281,-8.771 -0.71,-1.653 -1.167,-3.349 -1.355,-5.041 -0.075,-0.675 -0.115,-1.348 -0.137,-2.022 -10.508,-2.374 -22.072,-4.144 -34.502,-5.269 -3.331,-0.302 -6.384,-1.981 -8.423,-4.633 -0.217,-0.282 -0.418,-0.575 -0.608,-0.874 -0.696,6.099 -1.15,11.668 -1.379,16.987 -0.317,7.324 -0.231,13.65 0.278,19.452 3.36,-2.203 7.257,-3.597 11.642,-4.158 1.481,-0.189 2.986,-0.286 4.473,-0.286 5.726,0 11.517,1.418 17.212,4.215 8.026,3.941 13.927,10.284 17.064,18.343 3.256,8.367 3.155,17.159 -0.301,26.132 -2.667,6.923 -7.377,12.499 -13.62,16.124 -6.001,3.485 -12.738,5.252 -20.024,5.253 -2.435,0 -4.984,-0.2 -7.573,-0.593 -3.458,-0.526 -6.511,-1.505 -9.294,-2.484 -6.097,-2.147 -11.699,-5.4 -16.65,-9.671 -5.585,-4.817 -10.237,-10.871 -13.825,-17.994 -4.188,-8.311 -6.98,-17.759 -8.539,-28.882 -0.942,-6.726 -1.388,-13.869 -1.364,-21.838 0.017,-5.475 0.27,-11.108 0.768,-17.01 -3.248,2.951 -7.021,3.237 -8.347,3.237 -1.224,0 -2.442,-0.181 -3.621,-0.538 -2.641,-0.8 -4.836,-2.373 -6.397,-4.445 -0.119,0.744 -0.225,1.494 -0.314,2.243 -0.166,3.902 -1.797,6.839 -3.897,8.849 -0.022,0.047 -0.04,0.095 -0.062,0.141 -1.955,4.051 -6.013,6.668 -10.51,6.775 -0.113,0.003 -0.224,0.004 -0.334,0.004 -3.308,0 -5.608,-1.183 -6.414,-1.609 -2.04,-1.018 -3.877,-1.818 -5.611,-2.444 -3.517,-1.271 -7.083,-2.228 -10.598,-2.848 -0.301,-0.053 -0.595,-0.102 -0.885,-0.148 0.063,2.626 -0.642,5.14 -2.098,7.478 -2.956,4.774 -7.746,7.879 -13.497,8.759 -1.086,0.167 -2.191,0.251 -3.281,0.251 -4.429,0 -8.805,-1.374 -13.007,-4.084 -6.725,-4.335 -10.608,-11.689 -10.388,-19.671 0.192,-6.984 3.457,-13.287 8.869,-17.359 -0.728,-0.667 -1.432,-1.353 -2.108,-2.066 -10.133,-10.688 -13.274,-23.471 -9.082,-36.966 1.647,-5.304 4.625,-9.85 8.85,-13.513 5.778,-5.009 12.822,-7.619 20.936,-7.757 0.197,-0.003 0.396,-0.005 0.594,-0.005 6.097,0 12.16,1.607 18.02,4.776 3.566,1.928 6.572,4.353 8.985,7.24 0.879,-2.101 1.734,-4.169 2.56,-6.173 2.122,-5.148 4.225,-10.46 6.43,-16.24 2.235,-5.857 4.19,-11.234 5.976,-16.441 1.333,-3.881 2.523,-7.376 3.603,-10.846 1.341,-4.31 2.472,-8.164 3.46,-11.784 0.512,-1.878 1.054,-3.893 1.58,-5.967 -0.054,-0.006 -0.11,-0.015 -0.164,-0.021 -2.354,-0.253 -4.707,-0.382 -6.994,-0.382 -1.329,0 -2.667,0.044 -3.977,0.129 -0.304,0.02 -0.602,0.042 -0.894,0.066 0.683,2.536 0.594,5.145 -0.266,7.761 -1.739,5.34 -5.656,9.492 -11.035,11.711 -2.637,1.087 -5.431,1.639 -8.304,1.639 -2.754,0 -5.511,-0.491 -8.429,-1.501 -7.561,-2.617 -13.077,-8.841 -14.756,-16.646 -1.469,-6.831 0.209,-13.729 4.501,-18.969 -0.865,-0.475 -1.712,-0.974 -2.538,-1.506 -12.378,-7.981 -18.46,-19.655 -17.588,-33.76 0.342,-5.541 2.157,-10.664 5.394,-15.225 4.425,-6.237 10.649,-10.442 18.501,-12.499 2.906,-0.762 5.926,-1.149 8.977,-1.149 3.326,0 6.77,0.461 10.236,1.37 3.922,1.028 7.417,2.67 10.446,4.904 0.356,-2.249 0.696,-4.462 1.024,-6.606 0.839,-5.498 1.623,-11.157 2.396,-17.301 0.781,-6.214 1.405,-11.903 1.907,-17.388 0.374,-4.088 0.703,-7.767 0.929,-11.392 0.28,-4.497 0.465,-8.511 0.567,-12.268 0.119,-4.391 0.225,-9.483 -0.01,-14.336 l -0.002,-0.043 c -0.054,-1.117 -0.116,-2.384 -0.069,-3.819 0.235,-7.104 5.906,-12.671 12.912,-12.671 1.868,0 3.7,0.393 5.443,1.167 1.528,0.678 2.62,1.477 3.206,1.906 l 0.062,0.045 c 6.377,4.65 12.238,8.239 17.915,10.971 1.246,0.6 2.582,1.245 3.907,1.911 3.407,1.707 5.78,4.258 6.974,7.376 1.088,-0.302 2.233,-0.46 3.411,-0.46 3.419,0 5.986,1.334 7.619,2.339 3.628,2.232 6.689,3.854 9.63,5.105 1.963,0.836 4.066,1.594 6.293,2.395 0.851,0.307 1.703,0.614 2.551,0.927 2.198,0.81 5.877,2.164 8.344,6.199 2.46,4.026 1.991,7.899 1.71,10.213 l -0.009,0.083 c -0.27,2.225 -0.519,4.483 -0.748,6.756 2.615,-1.706 5.462,-3.031 8.533,-3.957 3.315,-0.999 6.845,-1.506 10.492,-1.506 1.355,0 2.761,0.07 4.179,0.207 8.909,0.864 16.82,4.466 23.511,10.706 0.465,0.434 0.918,0.879 1.365,1.33 1.665,-0.814 3.51,-1.255 5.412,-1.255 2.265,0 4.021,0.622 4.95,1.017 l 1.077,0.371 c 2.966,1.023 5.767,1.988 8.586,2.854 4.365,1.34 7.998,2.414 11.583,3.014 2.746,0.399 5.181,1.662 7.025,3.509 1.392,-0.471 2.797,-0.682 4.09,-0.682 1.769,0 3.203,0.348 4.255,0.652 1.611,0.465 3.429,0.844 5.187,1.211 3.169,0.66 6.103,1.116 8.972,1.392 1.595,0.154 2.971,0.52 4.163,1.007 0.286,-0.02 0.574,-0.032 0.864,-0.032 1.073,0 2.125,0.135 3.216,0.414 l 0.521,0.134 c 0.472,0.121 0.944,0.242 1.418,0.355 5.232,1.248 10.834,1.85 15.625,2.274 1.037,0.093 2.087,0.171 3.197,0.254 0.582,0.043 1.163,0.087 1.745,0.132 0.803,0.063 1.584,0.197 2.336,0.396 0.029,-0.045 0.057,-0.091 0.084,-0.136 4.277,-6.882 10.12,-11.638 17.369,-14.138 3.961,-1.366 8.145,-2.058 12.434,-2.058 2.561,0 5.212,0.248 7.881,0.737 5.369,0.985 10.002,3.075 13.769,6.213 4.996,4.161 8.301,9.326 9.778,15.107 3.337,-3.902 7.243,-6.974 11.672,-9.165 4.407,-2.181 9.371,-3.465 14.756,-3.819 0.914,-0.06 1.823,-0.091 2.703,-0.091 4.381,0 8.51,0.762 12.277,2.264 5.968,2.38 10.776,6.474 13.909,11.839 C -0.211,-12.634 0.976,-6.243 0,0" /></g><g
           transform="translate(634.6761,202.8282)"
           id="g28"><path
             id="path30"
             style="fill:none;stroke:#040606;stroke-width:1;stroke-linecap:butt;stroke-linejoin:miter;stroke-miterlimit:10;stroke-dasharray:none;stroke-opacity:1"
             d="m 0,0 c -0.956,6.117 -4.074,11.518 -8.78,15.206 -4.18,3.275 -9.427,5.08 -14.776,5.08 -1.559,0 -3.113,-0.154 -4.619,-0.46 -1.914,-0.388 -3.715,-0.981 -5.382,-1.769 -0.793,2.437 -1.564,5.048 -2.329,7.874 -1.798,6.642 -3.418,13.811 -5.256,23.244 l -0.128,0.655 c -0.881,4.526 -1.715,8.802 -2.223,13.038 -0.145,1.204 -0.445,3.71 -1.962,6.25 -2.336,3.907 -6.523,6.241 -11.197,6.241 h -10e-4 c -1.065,0 -2.002,-0.113 -2.857,-0.235 -3.338,-0.477 -6.697,-0.743 -9.985,-0.792 -0.968,-0.014 -1.84,-0.026 -2.704,-0.026 -1.631,0 -2.907,0.046 -4.017,0.145 -0.502,0.045 -0.975,0.067 -1.448,0.067 -1.546,0 -3.008,-0.245 -4.359,-0.696 -1.416,0.532 -2.949,0.823 -4.549,0.823 -0.392,0 -0.711,-0.017 -0.946,-0.032 l -0.098,-0.006 c -0.285,-0.016 -0.57,-0.035 -0.854,-0.061 l -2.413,-0.226 -1.958,-0.183 c -2.821,-0.263 -5.793,-0.511 -8.802,-0.658 7.31,9.078 10.451,20.066 8.984,32.209 -0.36,2.972 -0.964,5.661 -1.749,8.099 0.164,-0.047 0.326,-0.098 0.492,-0.138 0.169,-0.041 0.331,-0.082 0.489,-0.122 0.464,-0.116 0.989,-0.248 1.591,-0.375 1.963,-0.412 4.119,-0.794 6.586,-0.794 1.479,0 2.938,0.143 4.337,0.426 6.67,1.349 11.62,5.985 13.582,12.717 1.352,4.65 -0.118,9.693 -3.745,12.853 -0.617,0.538 -1.181,0.964 -1.592,1.275 -0.034,0.027 -0.068,0.053 -0.103,0.078 -0.137,0.115 -0.278,0.228 -0.421,0.337 l -0.52,0.396 -0.426,0.325 c -0.083,0.063 -0.165,0.124 -0.249,0.184 -0.044,0.033 -0.088,0.066 -0.133,0.098 l -0.498,0.362 -0.343,0.249 c -0.148,0.107 -0.297,0.21 -0.449,0.31 -0.24,0.173 -0.495,0.342 -0.758,0.507 -0.592,0.452 -1.233,0.86 -1.919,1.214 -0.086,0.045 -0.32,0.179 -0.49,0.276 -0.847,0.486 -2.127,1.22 -3.753,1.813 -2.564,0.935 -5.093,1.819 -7.549,2.64 0.65,0.867 1.31,1.761 1.987,2.698 1.085,1.501 1.689,2.911 2.063,3.836 0.374,0.566 0.704,1.167 0.985,1.8 0.274,0.62 0.51,1.197 0.718,1.706 0.105,0.259 0.211,0.519 0.32,0.777 l 0.477,1.123 c 0.95,2.242 1.932,4.559 2.905,6.816 0.243,0.566 0.515,1.163 0.803,1.796 0.309,0.677 0.628,1.378 0.952,2.124 0.355,0.821 0.664,1.59 0.962,2.334 0.423,1.055 0.823,2.051 1.189,2.746 2.619,4.967 5.045,9.393 7.416,13.532 5.543,9.675 12.067,19.702 19.946,30.652 0.49,0.681 0.981,1.36 1.472,2.038 l 0.629,0.869 c 0.11,0.152 0.216,0.306 0.318,0.463 0.11,0.137 0.217,0.276 0.323,0.418 2.65,2.797 3.859,6.78 3.033,10.715 l -0.035,0.167 -0.033,0.15 c -0.536,2.556 -1.871,4.777 -3.708,6.432 -0.298,0.39 -0.614,0.77 -0.965,1.127 -0.117,0.117 -0.226,0.24 -0.338,0.362 -0.608,0.659 -1.527,1.657 -2.78,2.645 -1.059,0.835 -2.116,1.673 -3.173,2.512 -3.574,2.836 -7.268,5.769 -11.096,8.579 -7.591,5.574 -15.515,10.395 -22.266,14.377 -7.185,4.24 -16.791,9.672 -27.371,14.086 -5.338,2.228 -10.257,3.97 -15.035,5.326 -6.131,1.74 -11.947,2.876 -17.781,3.474 -3.072,0.315 -6.056,0.468 -9.123,0.468 -1.021,0 -2.063,-0.018 -3.096,-0.053 -4.118,-0.138 -7.877,-2.383 -9.952,-5.943 -0.732,-1.255 -1.213,-2.612 -1.452,-4.002 -0.118,-0.271 -0.233,-0.542 -0.352,-0.813 -0.567,-1.292 -1.21,-2.755 -1.771,-4.436 -0.742,-2.214 -1.427,-4.418 -2.09,-6.549 -0.535,-1.717 -1.039,-3.339 -1.57,-4.961 -0.803,-2.464 -1.685,-5.002 -2.695,-7.76 -0.816,-2.229 -1.663,-4.426 -2.558,-6.752 -0.288,-0.745 -0.575,-1.49 -0.86,-2.235 -0.395,-1.031 -0.795,-2.06 -1.195,-3.089 -0.704,-1.815 -1.434,-3.692 -2.14,-5.585 -0.717,-1.921 -1.422,-3.857 -2.102,-5.729 -0.689,-1.892 -1.401,-3.848 -2.109,-5.742 -0.931,-2.49 -1.782,-4.742 -2.701,-6.915 -0.063,-0.095 -0.141,-0.209 -0.204,-0.303 -0.307,-0.454 -0.689,-1.019 -1.092,-1.705 -0.609,-1.034 -1.013,-1.957 -1.279,-2.569 l -0.091,-0.208 -0.023,-0.052 c -0.336,-0.76 -0.677,-1.532 -1.019,-2.311 -2.042,-1.849 -3.593,-4.093 -4.736,-6.827 -0.611,0.51 -1.219,1.021 -1.829,1.531 -1.049,0.876 -2.149,1.613 -3.29,2.219 -0.77,0.627 -1.62,1.166 -2.539,1.592 l -3.559,1.646 c -0.448,0.207 -0.907,0.382 -1.373,0.531 -0.607,0.218 -1.238,0.392 -1.893,0.513 -0.092,0.017 -0.184,0.038 -0.277,0.057 -0.631,0.133 -1.585,0.334 -2.769,0.429 -0.407,0.032 -0.817,0.049 -1.221,0.049 -5.865,0 -10.955,-3.361 -13.281,-8.771 -0.71,-1.653 -1.167,-3.349 -1.355,-5.041 -0.075,-0.675 -0.115,-1.348 -0.137,-2.022 -10.508,-2.374 -22.072,-4.144 -34.502,-5.269 -3.331,-0.302 -6.384,-1.981 -8.423,-4.633 -0.217,-0.282 -0.418,-0.575 -0.608,-0.874 -0.696,6.099 -1.15,11.668 -1.379,16.987 -0.317,7.324 -0.231,13.65 0.278,19.452 3.36,-2.203 7.257,-3.597 11.642,-4.158 1.481,-0.189 2.986,-0.286 4.473,-0.286 5.726,0 11.517,1.418 17.212,4.215 8.026,3.941 13.927,10.284 17.064,18.343 3.256,8.367 3.155,17.159 -0.301,26.132 -2.667,6.923 -7.377,12.499 -13.62,16.124 -6.001,3.485 -12.738,5.252 -20.024,5.253 -2.435,0 -4.984,-0.2 -7.573,-0.593 -3.458,-0.526 -6.511,-1.505 -9.294,-2.484 -6.097,-2.147 -11.699,-5.4 -16.65,-9.671 -5.585,-4.817 -10.237,-10.871 -13.825,-17.994 -4.188,-8.311 -6.98,-17.759 -8.539,-28.882 -0.942,-6.726 -1.388,-13.869 -1.364,-21.838 0.017,-5.475 0.27,-11.108 0.768,-17.01 -3.248,2.951 -7.021,3.237 -8.347,3.237 -1.224,0 -2.442,-0.181 -3.621,-0.538 -2.641,-0.8 -4.836,-2.373 -6.397,-4.445 -0.119,0.744 -0.225,1.494 -0.314,2.243 -0.166,3.902 -1.797,6.839 -3.897,8.849 -0.022,0.047 -0.04,0.095 -0.062,0.141 -1.955,4.051 -6.013,6.668 -10.51,6.775 -0.113,0.003 -0.224,0.004 -0.334,0.004 -3.308,0 -5.608,-1.183 -6.414,-1.609 -2.04,-1.018 -3.877,-1.818 -5.611,-2.444 -3.517,-1.271 -7.083,-2.228 -10.598,-2.848 -0.301,-0.053 -0.595,-0.102 -0.885,-0.148 0.063,2.626 -0.642,5.14 -2.098,7.478 -2.956,4.774 -7.746,7.879 -13.497,8.759 -1.086,0.167 -2.191,0.251 -3.281,0.251 -4.429,0 -8.805,-1.374 -13.007,-4.084 -6.725,-4.335 -10.608,-11.689 -10.388,-19.671 0.192,-6.984 3.457,-13.287 8.869,-17.359 -0.728,-0.667 -1.432,-1.353 -2.108,-2.066 -10.133,-10.688 -13.274,-23.471 -9.082,-36.966 1.647,-5.304 4.625,-9.85 8.85,-13.513 5.778,-5.009 12.822,-7.619 20.936,-7.757 0.197,-0.003 0.396,-0.005 0.594,-0.005 6.097,0 12.16,1.607 18.02,4.776 3.566,1.928 6.572,4.353 8.985,7.24 0.879,-2.101 1.734,-4.169 2.56,-6.173 2.122,-5.148 4.225,-10.46 6.43,-16.24 2.235,-5.857 4.19,-11.234 5.976,-16.441 1.333,-3.881 2.523,-7.376 3.603,-10.846 1.341,-4.31 2.472,-8.164 3.46,-11.784 0.512,-1.878 1.054,-3.893 1.58,-5.967 -0.054,-0.006 -0.11,-0.015 -0.164,-0.021 -2.354,-0.253 -4.707,-0.382 -6.994,-0.382 -1.329,0 -2.667,0.044 -3.977,0.129 -0.304,0.02 -0.602,0.042 -0.894,0.066 0.683,2.536 0.594,5.145 -0.266,7.761 -1.739,5.34 -5.656,9.492 -11.035,11.711 -2.637,1.087 -5.431,1.639 -8.304,1.639 -2.754,0 -5.511,-0.491 -8.429,-1.501 -7.561,-2.617 -13.077,-8.841 -14.756,-16.646 -1.469,-6.831 0.209,-13.729 4.501,-18.969 -0.865,-0.475 -1.712,-0.974 -2.538,-1.506 -12.378,-7.981 -18.46,-19.655 -17.588,-33.76 0.342,-5.541 2.157,-10.664 5.394,-15.225 4.425,-6.237 10.649,-10.442 18.501,-12.499 2.906,-0.762 5.926,-1.149 8.977,-1.149 3.326,0 6.77,0.461 10.236,1.37 3.922,1.028 7.417,2.67 10.446,4.904 0.356,-2.249 0.696,-4.462 1.024,-6.606 0.839,-5.498 1.623,-11.157 2.396,-17.301 0.781,-6.214 1.405,-11.903 1.907,-17.388 0.374,-4.088 0.703,-7.767 0.929,-11.392 0.28,-4.497 0.465,-8.511 0.567,-12.268 0.119,-4.391 0.225,-9.483 -0.01,-14.336 l -0.002,-0.043 c -0.054,-1.117 -0.116,-2.384 -0.069,-3.819 0.235,-7.104 5.906,-12.671 12.912,-12.671 1.868,0 3.7,0.393 5.443,1.167 1.528,0.678 2.62,1.477 3.206,1.906 l 0.062,0.045 c 6.377,4.65 12.238,8.239 17.915,10.971 1.246,0.6 2.582,1.245 3.907,1.911 3.407,1.707 5.78,4.258 6.974,7.376 1.088,-0.302 2.233,-0.46 3.411,-0.46 3.419,0 5.986,1.334 7.619,2.339 3.628,2.232 6.689,3.854 9.63,5.105 1.963,0.836 4.066,1.594 6.293,2.395 0.851,0.307 1.703,0.614 2.551,0.927 2.198,0.81 5.877,2.164 8.344,6.199 2.46,4.026 1.991,7.899 1.71,10.213 l -0.009,0.083 c -0.27,2.225 -0.519,4.483 -0.748,6.756 2.615,-1.706 5.462,-3.031 8.533,-3.957 3.315,-0.999 6.845,-1.506 10.492,-1.506 1.355,0 2.761,0.07 4.179,0.207 8.909,0.864 16.82,4.466 23.511,10.706 0.465,0.434 0.918,0.879 1.365,1.33 1.665,-0.814 3.51,-1.255 5.412,-1.255 2.265,0 4.021,0.622 4.95,1.017 l 1.077,0.371 c 2.966,1.023 5.767,1.988 8.586,2.854 4.365,1.34 7.998,2.414 11.583,3.014 2.746,0.399 5.181,1.662 7.025,3.509 1.392,-0.471 2.797,-0.682 4.09,-0.682 1.769,0 3.203,0.348 4.255,0.652 1.611,0.465 3.429,0.844 5.187,1.211 3.169,0.66 6.103,1.116 8.972,1.392 1.595,0.154 2.971,0.52 4.163,1.007 0.286,-0.02 0.574,-0.032 0.864,-0.032 1.073,0 2.125,0.135 3.216,0.414 l 0.521,0.134 c 0.472,0.121 0.944,0.242 1.418,0.355 5.232,1.248 10.834,1.85 15.625,2.274 1.037,0.093 2.087,0.171 3.197,0.254 0.582,0.043 1.163,0.087 1.745,0.132 0.803,0.063 1.584,0.197 2.336,0.396 0.029,-0.045 0.057,-0.091 0.084,-0.136 4.277,-6.882 10.12,-11.638 17.369,-14.138 3.961,-1.366 8.145,-2.058 12.434,-2.058 2.561,0 5.212,0.248 7.881,0.737 5.369,0.985 10.002,3.075 13.769,6.213 4.996,4.161 8.301,9.326 9.778,15.107 3.337,-3.902 7.243,-6.974 11.672,-9.165 4.407,-2.181 9.371,-3.465 14.756,-3.819 0.914,-0.06 1.823,-0.091 2.703,-0.091 4.381,0 8.51,0.762 12.277,2.264 5.968,2.38 10.776,6.474 13.909,11.839 C -0.211,-12.634 0.976,-6.243 0,0 Z" /></g><g
           transform="translate(489.5794,377.0327)"
           id="g32"><path
             id="path34"
             style="fill:#040606;fill-opacity:1;fill-rule:nonzero;stroke:none"
             d="M 0,0 C -0.363,0.2 -0.729,0.397 -1.09,0.602 -1.437,0.8 -1.778,1.007 -2.067,1.31 -1.364,0.914 -0.66,0.518 0.044,0.122 Z" /></g></g></g><g
       id="g36"><g
         id="g38"><g
           id="g44"><g
             id="g46"><path
               id="path58"
               style="fill:url(#linearGradient56);stroke:none"
               d="m 472.147,449.321 -16.491,-34.749 c 0,0 -4.941,-6.364 6.479,-16.785 v 0 c 0.105,-0.096 0.215,-0.183 0.32,-0.279 v 0 c 3.323,-2.443 7.867,-5.718 10.318,-7.193 v 0 c 4.159,-2.503 5.658,-3.493 8.571,-5.022 v 0 c 2.913,-1.53 3.98,-2.045 6.815,-3.407 v 0 c 2.834,-1.362 7.84,-3.718 12.074,-5.78 v 0 c 0.225,-0.109 0.426,-0.226 0.621,-0.343 v 0 c 4.278,-1.658 8.55,-3.211 12.739,-4.735 v 0 l 10.088,-0.332 7.067,7.656 c 0,0 8.834,14.134 11.19,18.552 v 0 c 2.356,4.418 11.19,23.264 11.19,23.264 v 0 l -8.54,16.49 -22.38,13.252 -7.656,0.884 c 0,0 -27.093,3.533 -27.975,3.827 v 0 c -0.023,0.008 -0.054,0.012 -0.093,0.012 v 0 c -1.475,0 -14.337,-5.312 -14.337,-5.312" /></g></g></g></g><g
       id="g60"><g
         clip-path="url(#clipPath66)"
         id="g62"><g
           transform="translate(474.4876,485.3604)"
           id="g68"><path
             id="path70"
             style="fill:#040606;fill-opacity:1;fill-rule:nonzero;stroke:none"
             d="m 0,0 c 3.651,0.123 7.126,-0.004 10.592,-0.359 5.338,-0.548 10.571,-1.618 15.731,-3.082 4.669,-1.325 9.215,-2.988 13.692,-4.856 8.992,-3.752 17.519,-8.407 25.896,-13.348 7.27,-4.288 14.456,-8.719 21.262,-13.715 4.744,-3.483 9.318,-7.199 13.943,-10.844 0.736,-0.579 1.334,-1.331 1.996,-2.004 -0.028,-0.043 -0.056,-0.088 -0.086,-0.132 -1.026,0.202 -2.059,0.376 -3.078,0.61 -4.149,0.956 -8.312,1.857 -12.434,2.918 -4.104,1.057 -8.17,2.261 -12.241,3.439 -3.157,0.915 -6.294,1.892 -9.443,2.836 -4.548,1.363 -9.115,2.662 -13.633,4.115 -1.384,0.445 -2.632,1.315 -3.948,1.977 -3.834,1.928 -7.651,3.892 -11.514,5.764 -6.868,3.33 -13.779,6.573 -20.194,10.753 C 10.379,-11.913 4.917,-7.144 0.603,-1.14 0.376,-0.824 0.233,-0.447 0,0" /></g><g
           transform="translate(577.4935,433.1167)"
           id="g72"><path
             id="path74"
             style="fill:#040606;fill-opacity:1;fill-rule:nonzero;stroke:none"
             d="m 0,0 c -0.705,-0.977 -1.412,-1.951 -2.116,-2.929 -7.369,-10.242 -14.343,-20.743 -20.616,-31.695 -2.626,-4.584 -5.155,-9.226 -7.619,-13.898 -0.997,-1.891 -1.695,-3.939 -2.547,-5.907 -0.573,-1.321 -1.196,-2.619 -1.765,-3.94 -1.147,-2.662 -2.275,-5.333 -3.407,-8.002 -0.325,-0.765 -0.623,-1.542 -0.96,-2.301 -0.056,-0.124 -0.259,-0.277 -0.377,-0.264 -0.883,0.099 -4.255,0.615 -5.398,0.873 -4.064,0.915 -8.018,2.186 -11.939,3.584 -2.368,0.844 -4.773,1.589 -7.156,2.39 -4.601,1.544 -9.198,3.104 -13.603,5.156 0.049,3.005 -0.122,6.036 -1.578,9.081 1.336,-0.812 2.433,-1.494 3.547,-2.148 0.573,-0.335 1.204,-0.578 1.762,-0.936 1.201,-0.77 2.371,-1.59 3.561,-2.378 0.068,-0.045 0.235,-0.017 0.313,0.039 1.053,0.752 1.84,-1.615 2.939,-0.25 0.966,-1.624 2.89,-0.137 4.029,-1.233 0.089,-0.085 0.324,-0.009 0.488,-0.028 1.691,-0.195 3.387,-0.366 5.073,-0.605 0.709,-0.101 1.397,-0.349 2.323,-0.589 -2.1,2.38 -3.981,4.58 -5.944,6.704 -0.812,0.879 -2.038,1.447 -2.648,2.423 -0.899,1.442 -1.903,2.522 -3.609,2.829 -0.159,0.028 -0.32,0.046 -0.485,0.07 0.088,0.317 0.168,0.597 0.201,0.711 -1.435,0.574 -2.729,1.092 -4.189,1.677 1.355,0.049 2.491,0.091 3.625,0.132 -0.002,0.108 -0.004,0.215 -0.007,0.322 1.169,-0.138 2.338,-0.275 3.588,-0.422 -0.083,0.571 -0.127,0.876 -0.16,1.106 1.128,-0.128 2.195,-0.248 3.304,-0.374 -0.035,0.558 -0.056,0.872 -0.066,1.035 1.287,-0.135 2.507,-0.263 4.101,-0.431 -0.443,0.78 -0.651,1.145 -0.837,1.471 1.46,-0.023 2.834,-0.044 4.36,-0.068 -0.306,0.662 -0.46,0.994 -0.567,1.226 1.243,0.125 2.434,0.244 3.837,0.385 -0.388,0.61 -0.63,0.99 -0.835,1.313 1.378,0.21 2.716,0.414 4.324,0.659 -0.462,0.573 -0.677,0.842 -0.891,1.108 1.266,0.505 2.951,0.651 3.489,1.513 0.849,1.359 2.244,2.01 3.272,2.983 1.588,1.502 4.008,2.125 6.075,3.12 0.053,0.103 0.106,0.206 0.16,0.309 -2.178,0.056 -4.37,-0.018 -6.53,0.212 -1.64,0.175 -3.223,0.891 -4.865,1.075 -1.226,0.138 -2.506,-0.188 -3.853,-0.316 -0.001,0.284 -0.003,0.659 -0.006,1.323 -1.363,-0.515 -2.628,-0.992 -3.93,-1.484 0.024,0.382 0.052,0.829 0.099,1.585 -1.313,-0.572 -2.447,-1.068 -3.618,-1.578 -0.009,0.291 -0.021,0.681 -0.042,1.431 -1.357,-0.793 -2.561,-1.497 -3.786,-2.213 0.007,0.34 0.017,0.746 0.038,1.651 -1.318,-0.902 -2.319,-1.587 -3.336,-2.283 -1.516,1.704 -2.025,-0.777 -3.496,-1.003 0.011,0.163 0.032,0.453 0.061,0.864 -1.496,-0.797 -2.895,-1.543 -4.614,-2.459 0.294,2.067 3.229,1.826 2.345,3.941 1.127,0.925 2.262,1.857 3.56,2.922 -0.648,0.338 -0.983,0.512 -1.312,0.683 0.975,0.842 1.923,1.661 3.003,2.594 -0.504,0.384 -0.828,0.63 -1.042,0.795 1.164,1.006 2.304,1.993 3.83,3.314 -1.105,0.187 -1.585,0.27 -2.106,0.358 1.156,1.188 2.316,2.379 3.698,3.8 -0.87,0.209 -1.321,0.318 -1.697,0.409 0.869,1.184 1.731,2.357 2.803,3.818 -0.989,0.077 -1.511,0.117 -1.964,0.153 0.913,1.392 1.807,2.756 2.87,4.38 -0.843,0.029 -1.276,0.044 -1.768,0.061 0.019,0.169 0.001,0.336 0.06,0.467 0.455,1.002 1.075,1.958 1.342,3.005 0.213,0.833 -0.036,1.775 -0.017,2.666 0.019,0.846 1.066,1.752 -0.249,2.547 -0.15,0.091 0.221,1.061 0.366,1.619 0.552,2.125 1.12,4.247 1.655,6.377 0.017,0.07 0.021,0.145 0.018,0.231 -0.073,-0.045 -0.133,-0.091 -0.182,-0.144 -1.468,-1.633 -2.911,-3.289 -4.366,-4.934 -0.382,-0.431 -0.98,-1.28 -1.139,-1.207 -1.394,0.647 -1.56,-0.727 -2.252,-1.215 -0.729,-0.515 -1.65,-0.834 -2.221,-1.474 -0.72,-0.807 -1.167,-1.855 -1.744,-2.792 -0.075,-0.123 -0.224,-0.2 -0.353,-0.311 -0.29,0.399 -0.543,0.75 -1.039,1.434 -0.752,-1.79 -1.385,-3.292 -2.032,-4.828 -0.281,0.356 -0.606,0.766 -1.222,1.544 -0.614,-1.705 -1.106,-3.073 -1.603,-4.457 -0.285,0.262 -0.628,0.576 -1.287,1.18 -0.406,-1.94 -0.748,-3.567 -1.088,-5.189 -0.363,0.381 -0.699,0.734 -1.472,1.546 -0.244,-2.003 -0.425,-3.5 -0.612,-5.027 -0.255,0.086 -0.641,0.216 -1.24,0.42 -0.171,-1.416 -0.321,-2.66 -0.476,-3.94 -0.325,0.177 -0.657,0.358 -1.299,0.709 -0.159,-1.672 -0.298,-3.136 -0.436,-4.586 -2.248,-0.448 -0.409,-2.747 -1.96,-4.145 -0.2,1.937 -0.362,3.514 -0.536,5.2 -0.325,-0.254 -0.554,-0.432 -0.684,-0.533 -0.634,1.347 1.141,3.154 -1.119,3.46 0.01,1.233 0.019,2.446 0.031,4.042 -0.739,-0.522 -1.071,-0.757 -1.348,-0.953 -0.09,1.417 -0.179,2.808 -0.279,4.376 -0.633,-0.4 -0.964,-0.609 -1.21,-0.764 -0.23,1.256 -0.453,2.474 -0.711,3.884 -0.6,-0.462 -0.956,-0.735 -1.259,-0.968 -0.32,1.355 -0.629,2.67 -0.963,4.089 -0.553,-0.368 -0.865,-0.577 -1.101,-0.733 -0.646,1.189 -1.091,2.431 -1.89,3.373 -1.07,1.259 -2.547,2.172 -3.608,3.435 -1.396,1.664 -2.558,3.524 -3.822,5.299 -0.055,-0.102 -0.11,-0.203 -0.166,-0.306 0.328,-2.27 1.162,-4.626 0.803,-6.78 -0.234,-1.397 0.005,-2.918 -0.648,-4.381 -0.414,-0.928 0.405,-2.407 0.693,-3.74 -0.34,0.029 -0.683,0.059 -1.417,0.122 0.695,-1.472 1.272,-2.696 1.867,-3.956 -0.382,-0.01 -0.832,-0.021 -1.555,-0.04 0.667,-1.243 1.232,-2.297 1.822,-3.399 -0.251,-0.04 -0.612,-0.098 -1.333,-0.213 0.872,-1.254 1.658,-2.382 2.491,-3.58 -0.374,-0.028 -0.793,-0.06 -1.687,-0.127 1.028,-1.228 1.816,-2.17 2.646,-3.161 -0.14,-0.082 -0.412,-0.241 -0.895,-0.523 0.725,-0.851 1.42,-1.668 2.155,-2.533 -0.21,-0.101 -0.487,-0.234 -1.008,-0.484 0.821,-0.955 1.587,-1.848 2.355,-2.741 -0.091,-0.058 -0.181,-0.116 -0.271,-0.174 0.599,-0.965 1.199,-1.93 1.913,-3.082 -1.299,0.885 -2.452,1.669 -3.729,2.539 -0.076,-0.091 -0.265,-0.313 -0.477,-0.564 -0.112,0.124 -0.217,0.248 -0.33,0.363 -1.207,1.245 -2.663,1.474 -4.362,1.416 -1.149,-0.04 -2.306,0.661 -3.488,0.843 -2.858,0.443 -5.734,0.775 -8.881,1.188 0.716,-0.633 1.307,-1.066 1.786,-1.598 1.14,-1.265 2.229,-2.576 3.335,-3.871 0.107,-0.126 0.175,-0.362 0.295,-0.388 1.546,-0.334 1.386,-2.761 3.273,-2.655 -0.52,-1.673 1.883,-1.005 1.848,-2.299 -0.003,-0.095 0.066,-0.249 0.143,-0.28 1.318,-0.549 2.651,-1.061 3.962,-1.628 0.607,-0.263 1.161,-0.65 1.759,-0.939 1.164,-0.559 2.343,-1.088 3.762,-1.743 -3.427,-0.505 -6.085,-2.124 -8.607,-3.895 -2.664,1.74 -5.277,3.559 -7.865,5.419 -4.932,3.546 -9.349,7.688 -13.853,11.733 -1.058,0.949 -2.923,2.625 -3.305,3.053 -0.12,0.136 -0.106,0.493 -0.021,0.692 0.744,1.753 1.514,3.495 2.284,5.237 0.229,0.519 0.445,1.049 0.732,1.536 0.598,1.012 1.375,1.941 1.833,3.009 1.1,2.568 2.088,5.186 3.067,7.804 1.427,3.818 2.788,7.659 4.214,11.478 1.07,2.868 2.201,5.715 3.296,8.574 1.168,3.049 2.359,6.09 3.482,9.156 0.989,2.704 1.94,5.424 2.834,8.161 1.24,3.8 2.364,7.638 3.632,11.428 0.57,1.706 1.37,3.335 2.062,5.001 0.14,0.337 0.267,0.679 0.415,1.061 0.48,-0.339 3.043,-3.874 3.515,-4.421 4.353,-5.043 9.501,-9.142 15.107,-12.695 4.865,-3.084 9.969,-5.727 15.165,-8.197 5.562,-2.643 11.117,-5.3 16.709,-7.878 1.575,-0.726 3.247,-1.253 4.904,-1.781 7.403,-2.361 14.798,-4.746 22.23,-7.014 C -19.021,7.338 -12.506,5.629 -5.925,4.19 -4.084,3.788 0.066,2.476 1.591,2.425 1.612,2.319 1.635,2.214 1.657,2.108 1.4,1.979 -0.023,0.027 0,0 m -88.499,-41.13 c -1.085,-0.573 -2.906,-1.601 -4.786,-2.511 -2.409,-1.166 -4.894,-1.625 -7.424,-1.647 1.497,-0.881 3.016,-1.729 4.56,-2.536 1.124,-0.588 2.257,-1.156 3.394,-1.719 l 2.354,4.422 c 0.677,1.421 1.32,2.771 1.902,3.991 m 2.632,-6.459 c 0.342,-2.402 1.2,-4.53 2.395,-6.479 -0.903,0.441 -1.806,0.881 -2.71,1.322 -1.614,0.789 -3.234,1.566 -4.849,2.354 l 2.324,4.367 c 0.802,1.356 1.562,2.644 2.25,3.808 0.131,-1.221 0.295,-3.305 0.59,-5.372" /></g><g
           transform="translate(575.3978,228.0313)"
           id="g76"><path
             id="path78"
             style="fill:#040606;fill-opacity:1;fill-rule:nonzero;stroke:none"
             d="M 0,0 C 0.06,0.927 -5.1,23.341 -6.268,27.296 -6.613,26.965 -6.559,26.516 -6.61,26.105 -7.129,21.986 -7.648,17.867 -8.149,13.746 -8.455,11.228 -8.718,8.705 -9.021,6.187 -9.078,5.719 -9.001,5.398 -8.579,5.117 -6.979,4.049 -5.424,2.914 -3.813,1.865 -2.628,1.095 -1.407,0.364 0,0 m 40.41,-46.737 c -3.141,-1.253 -6.412,-1.567 -9.756,-1.347 -3.569,0.234 -7.003,1.007 -10.224,2.602 -4.629,2.29 -8.08,5.833 -10.758,10.181 -2.75,4.466 -4.502,9.347 -5.906,14.367 -1.047,3.746 -1.842,7.552 -2.742,11.332 -0.166,0.701 -0.452,1.036 -1.15,1.193 -3.446,0.775 -6.64,2.196 -9.717,3.9 -0.133,0.072 -0.278,0.12 -0.399,0.171 -0.268,-0.152 -0.265,-0.395 -0.288,-0.617 -0.44,-4.249 -1.032,-8.484 -1.189,-12.76 -0.097,-2.64 0.178,-5.226 1.214,-7.69 0.12,-0.284 0.301,-0.577 -0.007,-0.836 -0.242,-0.203 -0.513,-0.083 -0.762,0.026 -0.247,0.109 -0.488,0.231 -0.73,0.348 -4.757,2.311 -9.442,2.075 -14.063,-0.399 -0.068,-0.036 -0.123,-0.097 -0.194,-0.124 -0.238,-0.09 -0.477,-0.332 -0.738,-0.088 -0.286,0.269 -0.169,0.583 0.006,0.843 3.016,4.481 3.808,9.685 4.825,14.814 0.651,3.284 1.054,6.609 1.564,9.917 0.036,0.227 0.037,0.462 0.083,0.687 0.094,0.446 -0.125,0.619 -0.524,0.715 -1.626,0.394 -3.256,0.616 -4.907,0.168 -2.951,-0.802 -4.283,-4.461 -2.534,-6.984 0.842,-1.217 2.064,-1.522 3.46,-1.339 0.113,0.015 0.218,0.08 0.332,0.097 0.107,0.018 0.219,0.004 0.381,0.004 -0.272,-1.252 -0.99,-2.134 -2.07,-2.647 -4.196,-1.991 -9.06,-0.837 -11.43,3.543 -2.13,3.937 -1.617,8.627 1.332,11.692 2.283,2.374 5.214,3.294 8.433,3.491 2.478,0.153 4.819,-0.376 7.097,-1.288 0.286,-0.114 0.567,-0.242 0.857,-0.342 0.219,-0.077 0.383,0.02 0.426,0.247 0.099,0.529 0.177,1.062 0.271,1.592 0.088,0.502 -0.297,0.657 -0.616,0.864 -1.975,1.283 -4.116,2.254 -6.237,3.259 -0.942,0.447 -1.856,0.939 -2.7,1.548 -2.393,1.729 -3.137,4.885 -1.808,7.639 1.203,2.492 3.82,4.005 7.061,3.24 1.792,-0.423 3.101,-2.005 3.084,-4.223 -0.241,-0.158 -0.408,0.065 -0.603,0.127 -1.537,0.489 -3.105,-0.35 -3.502,-1.92 -0.388,-1.538 0.018,-2.912 1.066,-4.067 0.567,-0.625 1.223,-1.171 1.863,-1.724 0.865,-0.749 1.754,-1.47 2.766,-2.314 0.195,1.17 0.389,2.206 0.54,3.249 0.887,6.137 1.494,12.301 1.776,18.496 0.003,0.077 0,0.155 0.007,0.232 0.095,1.156 0.382,1.436 1.52,1.335 2.652,-0.237 5.309,-0.204 7.964,-0.165 3.853,0.057 7.688,0.367 11.502,0.911 1.988,0.284 2.182,0.164 2.419,-1.815 0.586,-4.893 1.546,-9.725 2.487,-14.558 1.575,-8.083 3.301,-16.138 5.452,-24.085 2.031,-7.504 4.447,-14.897 7.805,-21.939 1.113,-2.334 2.418,-4.558 4.129,-6.518 2.079,-2.383 4.605,-3.889 7.823,-4.211 4.443,-0.445 7.96,2.208 8.631,6.631 0.197,1.3 0.288,2.586 -0.18,3.874 -1.206,3.312 -4.665,4.65 -7.694,2.916 -0.798,-0.457 -1.473,-1.051 -1.723,-2.231 0.885,0.546 1.698,0.653 2.544,0.513 0.81,-0.134 1.459,-0.538 1.83,-1.268 1.069,-2.111 0.612,-4.122 -1.64,-5.243 -1.803,-0.898 -4.13,-0.419 -5.513,1.069 -2.029,2.183 -2.189,5.587 -0.348,8.086 1.494,2.029 3.59,3.112 5.998,3.599 5.632,1.142 12.732,-2.129 13.951,-9.928 1.138,-7.286 -2.791,-14.035 -9.847,-16.848 M -74.041,83.801 -71.706,47.725 c 0,0 18.343,3.329 19.206,23.876 0.584,13.893 -21.541,12.2 -21.541,12.2 m -12.957,-38.966 6.405,0.68 -1.359,37.85 -12.131,0.873 -0.745,10.613 c -0.323,0.043 -0.645,0.068 -0.969,0.122 -1.605,0.262 -3.129,0.795 -4.535,1.63 -2.97,1.764 -4.238,4.778 -3.782,8.06 0.427,3.079 3.118,5.742 6.307,6.265 2.752,0.451 5.467,-0.712 6.056,-4.73 -0.832,0.278 -1.566,0.483 -2.355,0.403 -1.281,-0.131 -2.17,-0.801 -2.487,-2.059 -0.435,-1.735 -0.097,-3.288 1.315,-4.498 1.264,-1.085 2.797,-1.602 4.381,-1.966 1.562,-0.36 3.14,-0.553 4.726,-0.653 14.083,2.672 40.641,4.21 43.711,-21.213 4.203,-34.792 -42.694,-41.956 -42.694,-41.956 z m -60.1,72.416 c 7.127,-23.251 9.163,-47.167 7.783,-70.233 0,0 16.676,4.975 22.396,5.865 6.745,1.049 27.268,1.43 27.268,1.43 0.68,0.117 0.9,0.373 0.657,0.771 l -5.428,8.676 -0.408,0.851 -1.719,3.127 c -0.546,1.66 -1.162,2.958 -1.848,3.893 -9.177,-12.003 -35.334,-6.684 -25.905,11.495 3.119,5.354 7.409,7.711 12.87,7.065 -2.728,-0.466 -4.121,-2.065 -4.18,-4.793 -0.016,-3.51 1.428,-5.806 4.333,-6.889 13.04,-3.054 15.608,32.906 -15.436,16.439 -0.437,-0.515 -0.723,-0.386 -0.854,0.38 0.516,6.226 2.327,11.534 5.437,15.925 5.565,4.896 11.136,5.145 16.71,0.748 -0.003,0.526 0.003,1.008 0.016,1.45 0.011,0.44 0.073,0.845 0.187,1.216 l 1.02,6.357 0.377,1.643 0.667,3.797 c -13.247,-3.577 -28.074,-6.109 -44.483,-7.595 0.03,-0.172 0.086,-0.38 0.174,-0.628 0.085,-0.249 0.207,-0.579 0.366,-0.99 m -18.101,33.396 c -0.003,0.525 0.003,1.007 0.015,1.449 0.012,0.44 0.074,0.845 0.187,1.216 l 1.02,6.357 0.377,1.643 0.667,3.797 c -11.324,-3.058 -23.812,-5.345 -37.446,-6.875 -1.115,-0.075 -7.94,-0.92 -13.629,-3.448 -1.755,-0.78 -3.299,-1.91 -4.627,-3.311 -2.807,-2.959 -3.278,-6.791 -1.704,-10.372 1.476,-3.36 5.388,-5.52 9.18,-5.088 3.271,0.372 5.981,2.567 5.358,7.321 -0.856,-0.583 -1.624,-1.053 -2.546,-1.215 -1.496,-0.263 -2.723,0.212 -3.486,1.538 -1.054,1.831 -1.169,3.704 0.045,5.533 1.088,1.639 2.662,2.719 4.344,3.643 0.42,0.23 0.844,0.447 1.272,0.656 6.546,-22.493 8.412,-45.556 7.08,-67.828 0,0 16.676,4.975 22.395,5.865 6.745,1.049 27.268,1.431 27.268,1.431 0.681,0.116 0.901,0.371 0.658,0.77 l -5.428,8.676 -0.409,0.851 -1.718,3.127 c -0.546,1.66 -1.163,2.958 -1.848,3.894 -9.177,-12.005 -35.335,-6.685 -25.905,11.494 3.119,5.354 7.409,7.711 12.87,7.065 -2.728,-0.466 -4.121,-2.065 -4.181,-4.792 -0.015,-3.511 1.43,-5.807 4.334,-6.89 13.04,-3.054 15.608,32.906 -15.436,16.439 -0.438,-0.515 -0.723,-0.386 -0.854,0.38 0.515,6.226 2.326,11.534 5.437,15.925 5.565,4.896 11.136,5.145 16.71,0.749 m 25.295,-110.872 c 0.793,-0.002 1.502,-0.282 2.3,-0.645 -0.167,4.057 -2.746,5.497 -5.53,5.335 -3.226,-0.189 -6.179,-2.556 -6.926,-5.573 -0.795,-3.217 0.152,-6.347 2.922,-8.411 1.312,-0.977 2.772,-1.666 4.341,-2.093 6.103,-1.666 12.181,-1.357 18.233,0.293 0.161,0.044 0.381,0.086 0.392,0.41 -1.547,-0.084 -3.079,0.077 -4.609,0.212 -2.992,0.262 -5.963,0.681 -8.82,1.662 -1.538,0.527 -3.007,1.202 -4.152,2.412 -1.278,1.351 -1.452,2.931 -0.838,4.61 0.445,1.218 1.401,1.792 2.687,1.788 m -168.15,-0.18 c 1.742,0.935 3.476,0.821 5.191,-0.337 0.122,0.407 0.011,0.696 -0.083,0.987 -0.694,2.128 -2.181,3.488 -4.202,4.322 -2.76,1.138 -5.521,0.833 -8.24,-0.108 -7.708,-2.668 -9.538,-12.431 -3.984,-17.678 1.412,-1.334 2.997,-2.405 4.737,-3.258 4.895,-2.398 10.145,-3.35 15.517,-3.674 4.466,-0.271 8.933,-0.094 13.375,0.474 4.448,0.569 8.795,1.531 12.874,3.47 1.131,0.538 2.233,1.128 3.305,2.001 -0.479,0.129 -0.766,0.016 -1.059,-0.052 -2.478,-0.566 -4.976,-1.024 -7.505,-1.297 -4.336,-0.466 -8.681,-0.58 -13.034,-0.296 -3.855,0.251 -7.648,0.831 -11.309,2.123 -1.642,0.581 -3.206,1.316 -4.597,2.376 -1.984,1.512 -3.328,3.407 -3.466,5.99 -0.113,2.12 0.516,3.9 2.48,4.957 M -20.437,-27.63 c -2.375,-0.338 -4.424,-1.348 -5.888,-3.304 -1.552,-2.074 -2.054,-4.372 -1.145,-6.86 1.033,-2.821 4.465,-4.052 7.076,-2.573 1.456,0.824 2.076,2.368 1.537,3.825 -0.599,1.622 -1.94,2.395 -3.636,2.101 -0.181,-0.032 -0.36,-0.153 -0.549,-0.033 0.127,1.402 1.277,2.644 2.744,2.969 2.202,0.488 4.518,-0.6 5.546,-2.607 2.053,-4.009 0.484,-8.864 -3.58,-10.813 -3.269,-1.567 -6.608,-1.23 -9.865,0.056 -2.668,1.053 -4.417,3.14 -5.739,5.616 -1.743,3.268 -2.615,6.81 -3.25,10.422 -0.659,3.751 -0.997,7.556 -1.836,11.277 -0.886,3.925 -2.082,7.732 -4.282,11.152 -2.536,3.944 -6.014,6.427 -10.765,6.93 -0.511,0.054 -1.025,0.088 -1.643,0.141 0.17,0.281 0.234,0.416 0.324,0.532 4.843,6.283 9.867,12.414 15.275,18.225 2.967,3.186 6.015,6.291 9.258,9.198 2.036,1.825 4.131,3.58 6.474,5.013 0.25,0.153 0.638,0.258 0.491,0.661 -0.127,0.347 -0.478,0.332 -0.793,0.312 -0.192,-0.011 -0.384,-0.021 -0.576,-0.039 -1.457,-0.134 -2.913,-0.272 -4.37,-0.408 -4.446,-0.414 -8.895,-0.764 -13.363,-0.831 -1.773,-0.027 -3.541,0.026 -5.312,0.109 -1.064,0.05 -1.189,-0.082 -1.092,-1.073 0.207,-2.094 -0.283,-4.051 -1.105,-5.947 -1.668,-3.845 -4.075,-7.238 -6.515,-10.607 -3.093,-4.269 -6.235,-8.505 -9.367,-12.749 -0.133,-0.18 -0.161,-0.544 -0.543,-0.462 -0.154,0.344 -0.078,0.693 -0.065,1.029 0.141,3.847 0.303,7.693 0.444,11.541 0.109,2.967 0.352,5.921 0.941,8.832 0.436,2.159 1.096,4.246 2.483,6.028 0.574,0.737 1.245,1.363 2.009,1.894 0.234,0.163 0.466,0.34 0.32,0.648 -0.152,0.321 -0.457,0.195 -0.709,0.142 -0.564,-0.12 -1.12,-0.29 -1.688,-0.377 -5.485,-0.84 -11.007,-1.264 -16.547,-1.478 -1.693,-0.065 -3.387,-0.081 -5.081,-0.116 -0.268,-0.006 -0.565,0.043 -0.721,-0.24 -0.209,-0.378 0.137,-0.555 0.335,-0.761 0.649,-0.674 1.145,-1.444 1.531,-2.294 0.722,-1.592 1.114,-3.274 1.402,-4.987 0.671,-3.998 0.793,-8.042 0.895,-12.078 0.146,-5.774 0.164,-11.551 0.21,-17.327 0.032,-4.161 0.05,-8.321 0.019,-12.481 -0.039,-4.89 -0.13,-9.786 -0.903,-14.624 -0.581,-3.638 -1.079,-7.359 -4.064,-10.048 -0.151,-0.135 -0.207,-0.34 -0.088,-0.522 0.126,-0.192 0.327,-0.151 0.519,-0.102 0.708,0.181 1.416,0.366 2.127,0.536 5.707,1.362 11.516,2.038 17.348,2.555 1.687,0.148 3.376,0.264 5.064,0.396 0.275,0.021 0.557,0.054 0.609,0.401 0.044,0.299 -0.205,0.396 -0.408,0.483 -1.55,0.663 -2.455,1.941 -3.189,3.366 -1.177,2.285 -1.744,4.763 -2.166,7.27 -1.125,6.679 -1.02,13.425 -1.03,20.163 -0.001,0.459 0.121,0.723 0.618,0.767 0.574,0.051 1.143,0.184 1.718,0.216 2.203,0.121 4.311,-0.185 6.124,-1.572 1.681,-1.288 2.686,-3.051 3.332,-5.024 0.888,-2.718 1.414,-5.512 1.677,-8.359 0.378,-4.103 0.877,-8.189 1.878,-12.197 0.956,-3.828 2.282,-7.508 4.376,-10.879 2.668,-4.295 6.266,-7.467 11.094,-9.132 4.664,-1.608 9.43,-1.746 14.244,-0.863 3.034,0.557 5.874,1.648 8.26,3.634 5.102,4.25 7.125,9.769 6.084,16.269 -0.995,6.211 -6.296,9.941 -12.513,9.058 m -126.755,19.777 c -0.604,4.957 -1.665,9.785 -3.721,14.355 -1.401,3.117 -3.259,5.912 -5.821,8.227 -5.507,4.978 -13.944,5.711 -20.211,1.486 -1.814,-1.224 -3.326,-2.737 -4.283,-4.741 -0.107,-0.227 -0.343,-0.447 -0.092,-0.77 0.272,-0.032 0.574,-0.086 0.877,-0.1 2.216,-0.094 4.211,-0.834 6.043,-2.053 2.582,-1.717 4.321,-4.144 5.657,-6.873 1.915,-3.912 2.877,-8.107 3.47,-12.395 0.783,-5.664 0.874,-11.357 0.604,-17.059 -0.213,-4.505 -0.687,-8.98 -1.755,-13.373 -0.784,-3.228 -1.811,-6.364 -3.513,-9.243 -1.252,-2.118 -2.781,-3.971 -4.974,-5.189 -2.793,-1.552 -5.794,-1.141 -8.059,1.104 -1.451,1.439 -2.404,3.187 -3.127,5.072 -1.618,4.219 -2.167,8.64 -2.413,13.111 -0.232,4.197 -0.145,8.389 0.371,12.566 0.402,3.251 0.941,6.474 2.037,9.578 0.194,0.549 0.334,1.139 0.762,1.607 0.239,-0.257 0.18,-0.501 0.228,-0.716 0.876,-3.933 4.351,-6.594 8.354,-6.338 2.453,0.157 4.515,1.085 5.623,3.416 0.855,1.799 0.969,3.669 -0.266,5.373 -1.203,1.658 -3.302,2.175 -5.165,1.385 -1.814,-0.768 -2.811,-2.69 -2.48,-4.741 0.049,-0.305 0.288,-0.62 0.063,-0.971 -0.72,0.156 -1.076,0.662 -1.398,1.185 -1.209,1.959 -1.506,4.105 -1.145,6.333 0.538,3.316 2.849,5.482 6.182,5.926 0.728,0.096 1.456,0.031 2.212,0.041 0.091,0.497 -0.078,0.808 -0.211,1.124 -1.261,2.985 -3.495,4.83 -6.639,5.536 -2.342,0.525 -4.667,0.322 -6.951,-0.389 -4.364,-1.358 -7.663,-4.186 -10.441,-7.684 -3.128,-3.938 -5.264,-8.406 -6.72,-13.197 -2.97,-9.77 -3.284,-19.691 -1.483,-29.696 0.951,-5.278 2.715,-10.266 5.877,-14.667 2.918,-4.06 6.683,-6.982 11.518,-8.44 3.294,-0.993 6.639,-1.175 10.054,-0.845 6.378,0.618 11.844,3.206 16.492,7.542 4.235,3.948 7.258,8.749 9.539,14.037 3.715,8.613 5.168,17.694 5.492,26.993 0.157,4.505 -0.041,9.001 -0.587,13.483 m 58.861,38.285 c -0.15,-0.002 -0.302,-0.052 -0.45,-0.091 -5.875,-1.539 -11.862,-2.253 -17.923,-2.435 -1.075,-0.032 -2.158,0.024 -3.229,-0.157 -0.257,-0.043 -0.574,0.009 -0.631,-0.355 -0.047,-0.288 0.185,-0.405 0.394,-0.498 1.659,-0.736 2.584,-2.142 3.331,-3.69 0.79,-1.637 1.313,-3.368 1.709,-5.14 1.356,-6.044 1.668,-12.192 1.812,-18.355 0.107,-4.584 -0.158,-9.164 -0.218,-13.746 -0.006,-0.44 0,-0.88 0,-1.413 -0.426,0.206 -0.483,0.488 -0.591,0.713 -1.016,2.116 -2.066,4.217 -3.019,6.362 -4.454,10.029 -8.387,20.264 -12.019,30.616 -0.293,0.835 -0.55,1.682 -0.833,2.52 -0.373,1.102 -0.616,1.223 -1.689,0.87 -0.073,-0.025 -0.147,-0.046 -0.219,-0.073 -3.609,-1.354 -7.372,-1.887 -11.196,-2.027 -5.973,-0.22 -11.82,0.667 -17.581,2.182 -4.577,1.203 -9.051,2.758 -13.594,4.081 -6.766,1.971 -13.623,3.222 -20.717,2.764 -2.981,-0.193 -5.896,-0.67 -8.662,-1.816 -4.864,-2.013 -7.905,-5.49 -8.522,-10.848 -0.384,-3.334 0.328,-6.375 2.997,-8.557 4.196,-3.431 8.97,-4.163 14.114,-2.49 0.204,0.066 0.456,0.131 0.496,0.423 -0.189,0.302 -0.512,0.455 -0.782,0.666 -4.293,3.37 -4.234,10.54 0.913,13.393 2.782,1.542 5.795,2.076 8.906,1.971 4.009,-0.137 7.945,-0.901 11.876,-1.667 6.835,-1.333 13.619,-2.951 20.554,-3.739 0.888,-0.101 0.902,-0.131 1.024,-1.014 0.898,-6.486 1.359,-13.014 1.772,-19.545 0.283,-4.458 0.489,-8.922 0.526,-13.388 0.064,-7.625 0.072,-15.25 -0.726,-22.849 -0.491,-4.677 -1.154,-9.323 -2.549,-13.829 -0.822,-2.656 -1.839,-5.232 -3.636,-7.418 -0.184,-0.224 -0.504,-0.499 -0.252,-0.797 0.242,-0.285 0.576,-0.015 0.851,0.08 3.492,1.2 6.976,2.424 10.506,3.508 4.38,1.343 8.766,2.663 13.299,3.406 0.168,0.027 0.397,0.009 0.434,0.341 -1.229,0.931 -1.81,2.316 -2.318,3.73 -0.481,1.341 -0.833,2.723 -1.12,4.119 -1.356,6.579 -1.865,13.257 -2.222,19.946 -0.178,3.344 -0.198,6.698 -0.308,10.046 -0.126,3.812 -0.01,7.621 0.062,11.483 0.367,-0.022 0.418,-0.23 0.5,-0.389 0.656,-1.264 1.325,-2.521 1.951,-3.8 4.432,-9.035 8.021,-18.407 11.156,-27.958 1.439,-4.387 2.787,-8.803 3.857,-13.298 0.313,-1.312 0.547,-1.454 1.855,-1.077 1.999,0.578 4.031,1.005 6.065,1.429 3.397,0.708 6.815,1.257 10.269,1.59 1.133,0.109 1.397,0.434 1.283,1.575 -0.046,0.459 -0.153,0.911 -0.207,1.37 -0.72,6.047 -0.925,12.128 -1.056,18.205 -0.162,7.468 -0.186,14.939 0.069,22.409 0.134,3.925 0.256,7.85 0.477,11.771 0.241,4.269 0.545,8.534 1.234,12.756 0.425,2.603 0.656,5.289 2.319,7.525 0.233,0.314 0.043,0.615 -0.342,0.609 m -103.071,31.973 c 3.148,3.983 6.829,7.324 11.534,9.365 4.714,2.043 9.577,2.527 14.544,1.006 3.07,-0.94 5.664,-2.606 7.429,-5.36 1.986,-3.099 2.281,-6.485 1.524,-10.002 -0.613,-2.852 -1.827,-5.42 -4.098,-7.323 -3.853,-3.233 -8.263,-3.896 -13.006,-2.481 -1.578,0.472 -2.873,1.453 -3.858,2.81 -2.026,2.788 -2.181,7.285 -0.263,10.153 1.629,2.435 3.87,3.823 6.892,3.637 1.81,-0.111 3.04,-1.184 3.571,-3.201 -0.912,0.596 -1.721,0.772 -2.589,0.695 -1.836,-0.162 -3.393,-1.762 -3.477,-3.581 -0.093,-2.005 1.088,-3.414 3.135,-3.753 1.143,-0.189 2.23,0.044 3.266,0.487 5.045,2.161 4.89,8.587 1.326,11.332 -1.653,1.275 -3.552,1.869 -5.59,1.895 -4.25,0.054 -7.879,-1.535 -10.943,-4.439 -4.652,-4.409 -5.428,-11.867 -2.383,-17.012 1.762,-2.977 4.415,-4.891 7.589,-6.11 4.946,-1.899 10.019,-1.934 15.121,-0.809 5.674,1.251 10.33,4.145 13.686,8.94 3.6,5.146 4.628,10.91 3.836,17.053 -0.592,4.585 -2.502,8.589 -5.825,11.783 -5.132,4.931 -11.474,7.152 -18.46,7.773 -2.467,0.219 -4.918,0.046 -7.372,-0.199 -5.001,-0.497 -9.735,-1.911 -14.2,-4.192 -5.457,-2.789 -10.065,-6.658 -14.03,-11.307 -5.763,-6.757 -9.863,-14.484 -13.125,-22.686 -2.493,-6.266 -4.409,-12.713 -5.988,-19.268 -2.238,-9.295 -3.711,-18.715 -4.723,-28.212 -0.555,-5.205 -0.938,-10.423 -1.21,-15.653 -0.239,-4.576 -0.362,-9.153 -0.423,-13.732 -0.055,-4.199 -0.041,-8.397 0.099,-12.594 0.01,-0.303 0.183,-0.684 -0.238,-0.944 -0.096,0.191 -0.19,0.357 -0.265,0.531 -4.291,9.972 -8.121,20.122 -11.686,30.374 -2.187,6.289 -4.301,12.6 -6.196,18.983 -0.107,0.361 -0.17,0.863 -0.632,0.837 -0.473,-0.026 -0.641,-0.492 -0.726,-0.929 -0.022,-0.113 -0.03,-0.229 -0.05,-0.342 -0.22,-1.212 -0.441,-2.423 -0.662,-3.634 -1.812,-9.958 -3.931,-19.853 -6.201,-29.716 -1.89,-8.213 -3.815,-16.419 -5.724,-24.629 -0.15,-0.642 -0.296,-1.287 -0.443,-1.931 -0.238,0.259 -0.297,0.507 -0.335,0.759 -0.215,1.448 -0.434,2.893 -0.635,4.342 -0.785,5.681 -1.62,11.356 -2.332,17.046 -0.86,6.874 -1.623,13.76 -2.176,20.669 -0.52,6.49 -0.911,12.981 -0.904,19.496 0.004,4.087 0.128,8.162 0.652,12.22 0.057,0.439 0.332,1.004 -0.086,1.302 -0.47,0.338 -0.944,-0.102 -1.367,-0.344 -2.622,-1.5 -5.387,-2.644 -8.321,-3.372 -2.766,-0.686 -5.557,-1.226 -8.376,-1.653 -5.332,-0.808 -10.693,-1.329 -16.06,-1.81 -2.913,-0.262 -5.837,-0.403 -8.729,-0.883 -5.211,-0.865 -10.231,-2.318 -14.701,-5.201 -8.314,-5.361 -12.744,-12.851 -12.12,-22.945 0.203,-3.291 1.287,-6.324 3.205,-9.027 2.918,-4.112 6.958,-6.582 11.764,-7.841 4.385,-1.149 8.785,-0.919 13.134,0.221 3.419,0.897 6.455,2.546 8.837,5.197 3.984,4.431 5.682,9.678 5.379,15.611 -0.318,6.214 -4.339,10.85 -10.467,11.88 -3.549,0.598 -6.867,-0.045 -9.576,-2.557 -2.082,-1.929 -3.235,-4.327 -2.621,-7.248 0.712,-3.392 4.12,-5.489 7.348,-4.614 2.117,0.573 3.323,2.703 2.699,4.766 -0.601,1.988 -2.695,3.033 -4.71,2.333 -0.389,-0.135 -0.749,-0.351 -1.12,-0.529 -0.198,0.298 -0.079,0.565 -0.001,0.809 0.445,1.41 1.402,2.37 2.726,2.966 3.673,1.656 8.009,-0.575 8.793,-4.654 0.727,-3.785 -0.33,-7.182 -3.177,-9.766 -3.425,-3.108 -7.506,-3.701 -11.732,-1.931 -4.151,1.737 -6.28,5.128 -6.523,9.562 -0.266,4.859 1.561,8.957 5.092,12.278 2.329,2.189 5.076,3.723 8.023,4.927 5.442,2.224 11.197,2.685 16.969,3.07 0.475,0.032 0.592,-0.202 0.666,-0.585 0.108,-0.567 0.257,-1.125 0.377,-1.69 1.42,-6.662 2.757,-13.341 4.034,-20.033 1.01,-5.29 1.961,-10.591 2.876,-15.897 0.883,-5.118 1.684,-10.249 2.468,-15.383 0.894,-5.86 1.7,-11.733 2.439,-17.614 0.745,-5.92 1.408,-11.85 1.952,-17.793 0.358,-3.909 0.71,-7.82 0.955,-11.738 0.263,-4.225 0.472,-8.456 0.586,-12.69 0.137,-5.082 0.227,-10.159 -0.02,-15.239 -0.046,-0.961 -0.094,-1.926 -0.063,-2.886 0.031,-0.913 0.685,-1.31 1.51,-0.944 0.382,0.169 0.727,0.431 1.068,0.68 6.265,4.567 12.783,8.72 19.78,12.087 1.249,0.602 2.496,1.205 3.735,1.826 1.21,0.606 1.384,0.959 1.195,2.293 -0.022,0.152 -0.056,0.303 -0.09,0.452 -0.819,3.62 -1.082,7.308 -1.23,10.997 -0.123,3.076 -0.06,6.155 0.1,9.235 0.244,4.693 0.623,9.369 1.194,14.033 0.682,5.58 1.568,11.126 2.631,16.644 0.038,0.202 -0.017,0.477 0.364,0.519 0.094,-0.238 0.192,-0.484 0.288,-0.731 2.39,-6.18 4.467,-12.462 6.155,-18.869 2.15,-8.159 3.975,-16.379 4.421,-24.845 0.091,-1.737 0.536,-1.92 2.066,-0.979 3.61,2.22 7.314,4.265 11.218,5.926 3.081,1.311 6.254,2.383 9.394,3.539 2.657,0.979 2.626,1 2.286,3.805 -0.546,4.51 -1.003,9.026 -1.377,13.553 -0.542,6.563 -0.784,13.14 -1,19.718 -0.21,6.391 -0.096,12.782 0.167,19.17 0.255,6.194 0.594,12.381 1.081,18.563 0.394,4.991 0.857,9.974 1.473,14.941 0.766,6.189 1.709,12.353 2.925,18.474 1.812,9.116 4.146,18.081 7.653,26.707 2.329,5.725 5.152,11.183 9.005,16.06 m -149.313,98.558 c 1.688,-0.961 3.481,-1.626 5.374,-2.041 5.324,-1.17 10.65,-0.849 15.946,0.109 4.402,0.796 8.7,2.027 12.881,3.632 4.186,1.607 8.181,3.572 11.684,6.423 0.971,0.791 1.902,1.626 2.736,2.728 -0.496,0.012 -0.747,-0.167 -1.016,-0.301 -2.273,-1.138 -4.591,-2.175 -6.984,-3.039 -4.102,-1.482 -8.295,-2.622 -12.592,-3.379 -3.804,-0.67 -7.627,-1.005 -11.49,-0.618 -1.733,0.174 -3.426,0.518 -5.029,1.217 -2.286,0.999 -4.04,2.521 -4.787,4.997 -0.613,2.034 -0.424,3.913 1.234,5.404 1.47,1.323 3.182,1.623 5.123,0.904 0.021,0.425 -0.155,0.679 -0.315,0.939 -1.178,1.903 -2.946,2.872 -5.108,3.203 -2.951,0.451 -5.561,-0.5 -7.978,-2.058 -6.856,-4.421 -6.318,-14.339 0.321,-18.12 m 10.464,-57.151 c -4.968,0.084 -9.478,1.525 -13.288,4.828 -2.504,2.171 -4.276,4.861 -5.254,8.01 -2.999,9.658 -0.472,17.985 6.334,25.164 3.66,3.86 8.192,6.462 13.049,8.539 2.696,1.152 5.503,1.982 8.27,2.926 5.1,1.741 10.185,3.518 15.173,5.567 2.637,1.084 5.221,2.27 7.745,3.591 2.679,1.404 5.094,3.17 7.285,5.25 0.354,0.335 0.709,0.875 1.247,0.659 0.476,-0.192 0.343,-0.805 0.392,-1.245 0.453,-4.066 1.298,-8.055 2.263,-12.026 1.539,-6.331 3.457,-12.544 5.501,-18.726 2.176,-6.581 4.549,-13.09 7.015,-19.564 2.041,-5.359 4.197,-10.674 6.308,-16.007 0.538,-1.36 1.094,-2.713 1.646,-4.067 0.096,-0.236 0.212,-0.463 0.504,-0.659 -0.009,0.661 -0.02,1.322 -0.027,1.982 -0.092,8.428 -0.167,16.856 -0.278,25.284 -0.134,10.119 -0.421,20.234 -1.022,30.338 -0.073,1.229 -0.145,2.458 -0.218,3.687 -0.007,0.115 -0.027,0.23 -0.033,0.345 -0.021,0.444 0.032,0.936 0.485,1.074 0.443,0.134 0.623,-0.338 0.812,-0.663 3.355,-5.751 6.905,-11.382 10.521,-16.973 5.894,-9.114 12.022,-18.066 18.554,-26.737 0.115,-0.151 0.245,-0.29 0.383,-0.453 0.348,0.353 0.09,0.682 0.008,0.973 -1.131,4.045 -2.141,8.12 -3.082,12.212 -1.026,4.462 -1.992,8.939 -2.846,13.441 -0.975,5.145 -1.84,10.306 -2.535,15.494 -1.268,9.465 -2.071,18.967 -2.1,28.527 -0.021,6.742 0.312,13.459 1.248,20.138 1.224,8.742 3.376,17.22 7.372,25.151 2.749,5.457 6.309,10.308 10.949,14.311 3.797,3.275 8.06,5.771 12.801,7.44 2.326,0.819 4.666,1.568 7.114,1.94 6.934,1.054 13.622,0.4 19.777,-3.174 3.986,-2.314 6.791,-5.751 8.453,-10.066 2.226,-5.78 2.594,-11.623 0.316,-17.475 -2.123,-5.454 -5.96,-9.37 -11.175,-11.931 -4.69,-2.303 -9.627,-3.471 -14.882,-2.799 -3.372,0.431 -6.404,1.662 -8.821,4.136 -4.178,4.276 -5.192,11.706 -1.719,17.091 2.288,3.549 5.437,5.953 9.579,6.908 1.985,0.458 3.971,0.331 5.88,-0.515 4.113,-1.822 5.787,-8.029 1.398,-11.323 -0.901,-0.677 -1.902,-1.161 -3.058,-1.248 -2.068,-0.157 -3.55,0.933 -3.935,2.903 -0.349,1.787 0.784,3.71 2.529,4.303 0.824,0.28 1.652,0.301 2.68,-0.062 -0.994,1.834 -2.442,2.584 -4.228,2.264 -2.98,-0.536 -4.828,-2.417 -5.833,-5.168 -1.184,-3.241 0.033,-7.573 2.662,-9.801 1.279,-1.084 2.77,-1.731 4.415,-1.815 4.943,-0.25 9.07,1.44 12.047,5.493 1.754,2.388 2.326,5.171 2.245,8.087 -0.099,3.595 -1.188,6.816 -3.852,9.355 -2.368,2.258 -5.283,3.261 -8.489,3.446 -5.185,0.3 -9.795,-1.323 -13.889,-4.426 -4.088,-3.098 -6.873,-7.217 -8.986,-11.832 -2.587,-5.652 -4.035,-11.623 -4.94,-17.738 -1.362,-9.212 -1.504,-18.474 -1.102,-27.76 0.269,-6.235 0.814,-12.446 1.537,-18.641 0.581,-4.97 1.311,-9.921 2.113,-14.864 0.992,-6.12 2.13,-12.212 3.351,-18.289 1.259,-6.268 2.663,-12.504 4.382,-18.664 1.77,-6.338 3.565,-12.671 5.648,-18.918 1.436,-4.309 2.951,-8.587 4.551,-12.84 0.995,-2.644 1.03,-2.658 -1.32,-4.239 -2.776,-1.868 -5.604,-3.662 -8.286,-5.665 -3.399,-2.539 -6.513,-5.404 -9.493,-8.416 -1.264,-1.277 -1.739,-1.205 -2.24,0.46 -2.441,8.119 -6.163,15.672 -10.186,23.089 -3.158,5.823 -6.666,11.434 -10.453,16.87 -0.151,0.218 -0.305,0.434 -0.452,0.643 -0.361,-0.131 -0.242,-0.386 -0.232,-0.59 0.276,-5.613 0.731,-11.211 1.391,-16.793 0.551,-4.667 1.292,-9.3 2.168,-13.916 0.574,-3.032 1.243,-6.038 2.092,-8.996 1.018,-3.548 2.148,-7.069 3.802,-10.391 0.069,-0.138 0.137,-0.277 0.194,-0.419 0.5,-1.251 0.415,-1.635 -0.616,-2.511 -1.057,-0.896 -2.125,-1.779 -3.196,-2.659 -5.999,-4.931 -11.347,-10.51 -16.351,-16.433 -0.271,-0.322 -0.545,-0.658 -0.876,-0.913 -0.714,-0.55 -1.444,-0.321 -1.69,0.559 -0.258,0.925 -0.44,1.874 -0.623,2.818 -0.965,4.993 -2.256,9.906 -3.594,14.81 -1.115,4.087 -2.321,8.146 -3.578,12.189 -1.167,3.748 -2.437,7.465 -3.711,11.177 -1.937,5.645 -3.988,11.248 -6.115,16.823 -2.113,5.538 -4.288,11.052 -6.546,16.533 -1.979,4.801 -3.974,9.597 -6.045,14.359 -2.148,4.938 -4.327,9.862 -6.563,14.763 -2.827,6.197 -5.709,12.369 -8.668,18.505 -0.251,0.519 -0.528,1.027 -0.768,1.551 -0.162,0.356 -0.332,0.554 -0.785,0.411 -5.517,-1.743 -10.998,-3.555 -15.758,-7.005 -2.577,-1.868 -4.882,-4.01 -6.625,-6.69 -2.644,-4.062 -3.447,-8.478 -2.037,-13.134 1.288,-4.251 4.161,-7.04 8.605,-7.743 4.525,-0.717 8.349,0.826 10.939,4.658 2.154,3.185 2.375,6.736 0.771,10.24 -1.728,3.777 -6.469,4.916 -9.646,2.437 -1.145,-0.894 -1.847,-2.053 -1.945,-3.528 -0.017,-0.256 -0.07,-0.544 0.194,-0.786 0.317,0.26 0.616,0.557 0.961,0.78 1.792,1.158 4.074,0.639 5.129,-1.15 1.096,-1.857 0.429,-4.212 -1.491,-5.271 -2.929,-1.615 -6.738,-0.385 -8.233,2.741 -1.288,2.692 -0.737,5.295 0.827,7.663 2.038,3.082 5.108,4.494 8.697,4.755 6.198,0.451 11.204,-3.099 12.986,-9.06 1.701,-5.692 1.295,-11.191 -1.524,-16.441 -1.686,-3.14 -4.244,-5.463 -7.353,-7.144 -3.955,-2.139 -8.175,-3.406 -12.707,-3.329" /></g></g></g><g
       id="g80"><g
         id="g82"><g
           id="g88"><g
             id="g90"><path
               id="path102"
               style="fill:url(#linearGradient100);stroke:none"
               d="m 364.609,484.43 c -2.449,-0.373 -4.788,-1.123 -7.115,-1.941 v 0 c -4.741,-1.669 -9.004,-4.166 -12.8,-7.44 v 0 c -4.642,-4.003 -8.2,-8.854 -10.95,-14.311 v 0 c -3.996,-7.931 -6.148,-16.409 -7.373,-25.152 v 0 c -0.935,-6.677 -1.268,-13.395 -1.247,-20.137 v 0 c 0.029,-9.561 0.832,-19.062 2.101,-28.527 v 0 c 0.694,-5.188 1.559,-10.349 2.535,-15.495 v 0 c 0.853,-4.501 1.819,-8.977 2.846,-13.44 v 0 c 0.94,-4.092 1.95,-8.167 3.08,-12.212 v 0 c 0.083,-0.292 0.342,-0.62 -0.007,-0.973 v 0 c -0.137,0.163 -0.269,0.302 -0.382,0.453 v 0 c -6.533,8.671 -12.661,17.623 -18.555,26.737 v 0 c -3.615,5.591 -7.165,11.222 -10.521,16.973 v 0 c -0.189,0.325 -0.369,0.797 -0.811,0.663 v 0 c -0.455,-0.138 -0.507,-0.63 -0.486,-1.075 v 0 c 0.006,-0.115 0.026,-0.229 0.033,-0.344 v 0 c 0.074,-1.229 0.146,-2.458 0.219,-3.687 v 0 c 0.6,-10.104 0.887,-20.219 1.021,-30.339 v 0 c 0.112,-8.427 0.186,-16.855 0.278,-25.283 v 0 c 0.007,-0.661 0.018,-1.322 0.028,-1.982 v 0 c -0.292,0.196 -0.409,0.423 -0.505,0.659 v 0 c -0.551,1.354 -1.108,2.707 -1.646,4.067 v 0 c -2.11,5.332 -4.267,10.648 -6.308,16.006 v 0 c -2.466,6.475 -4.839,12.984 -7.015,19.564 v 0 c -2.043,6.182 -3.961,12.396 -5.501,18.727 v 0 c -0.965,3.971 -1.81,7.959 -2.263,12.025 v 0 c -0.049,0.441 0.085,1.054 -0.392,1.246 v 0 c -0.538,0.216 -0.893,-0.324 -1.247,-0.66 v 0 c -2.191,-2.079 -4.606,-3.845 -7.284,-5.248 v 0 c -2.524,-1.322 -5.108,-2.508 -7.746,-3.592 v 0 c -4.988,-2.05 -10.073,-3.826 -15.172,-5.567 v 0 c -2.768,-0.944 -5.576,-1.774 -8.271,-2.927 v 0 c -4.857,-2.075 -9.389,-4.678 -13.049,-8.538 v 0 c -6.806,-7.179 -9.333,-15.506 -6.334,-25.164 v 0 c 0.978,-3.149 2.75,-5.839 5.254,-8.01 v 0 c 3.81,-3.303 8.32,-4.745 13.287,-4.828 v 0 c 4.534,-0.078 8.753,1.189 12.708,3.329 v 0 c 3.109,1.681 5.667,4.004 7.353,7.143 v 0 c 2.819,5.251 3.225,10.75 1.524,16.441 v 0 c -1.782,5.962 -6.788,9.512 -12.986,9.061 v 0 c -3.589,-0.261 -6.66,-1.674 -8.697,-4.755 v 0 c -1.565,-2.368 -2.115,-4.971 -0.827,-7.664 v 0 c 1.495,-3.125 5.304,-4.355 8.233,-2.74 v 0 c 1.92,1.059 2.587,3.414 1.491,5.271 v 0 c -1.055,1.788 -3.336,2.308 -5.128,1.149 v 0 c -0.346,-0.223 -0.645,-0.519 -0.962,-0.779 v 0 c -0.264,0.242 -0.211,0.531 -0.194,0.786 v 0 c 0.098,1.475 0.8,2.634 1.945,3.528 v 0 c 3.177,2.479 7.918,1.34 9.646,-2.437 v 0 c 1.604,-3.504 1.383,-7.055 -0.771,-10.241 v 0 c -2.59,-3.831 -6.414,-5.374 -10.94,-4.658 v 0 c -4.443,0.704 -7.316,3.493 -8.604,7.744 v 0 c -1.41,4.656 -0.606,9.071 2.037,13.134 v 0 c 1.743,2.68 4.047,4.821 6.626,6.69 v 0 c 4.759,3.449 10.241,5.262 15.757,7.005 v 0 c 0.453,0.143 0.622,-0.055 0.785,-0.411 v 0 c 0.24,-0.525 0.517,-1.032 0.768,-1.551 v 0 c 2.959,-6.136 5.841,-12.307 8.668,-18.505 v 0 c 2.235,-4.901 4.416,-9.825 6.563,-14.763 v 0 c 2.072,-4.762 4.066,-9.557 6.045,-14.36 v 0 c 2.259,-5.48 4.433,-10.993 6.546,-16.533 v 0 c 2.128,-5.575 4.177,-11.178 6.115,-16.822 v 0 c 1.274,-3.713 2.544,-7.428 3.711,-11.177 v 0 c 1.258,-4.042 2.463,-8.102 3.578,-12.19 v 0 c 1.338,-4.903 2.629,-9.816 3.594,-14.809 v 0 c 0.183,-0.945 0.365,-1.893 0.623,-2.819 v 0 c 0.246,-0.88 0.977,-1.108 1.69,-0.558 v 0 c 0.331,0.255 0.604,0.591 0.877,0.914 v 0 c 5.002,5.923 10.35,11.502 16.35,16.432 v 0 c 1.071,0.88 2.14,1.763 3.195,2.66 v 0 c 1.032,0.875 1.117,1.259 0.618,2.51 v 0 c -0.058,0.143 -0.126,0.281 -0.195,0.419 v 0 c -1.655,3.321 -2.783,6.842 -3.802,10.391 v 0 c -0.849,2.959 -1.518,5.965 -2.093,8.995 v 0 c -0.874,4.617 -1.615,9.25 -2.167,13.916 v 0 c -0.66,5.583 -1.115,11.181 -1.391,16.794 v 0 c -0.01,0.204 -0.129,0.459 0.232,0.589 v 0 c 0.147,-0.208 0.301,-0.424 0.453,-0.642 v 0 c 3.786,-5.436 7.293,-11.048 10.452,-16.87 v 0 c 4.023,-7.417 7.746,-14.97 10.186,-23.089 v 0 c 0.501,-1.666 0.976,-1.738 2.24,-0.461 v 0 c 2.98,3.013 6.095,5.878 9.493,8.416 v 0 c 2.682,2.004 5.511,3.798 8.287,5.666 v 0 c 2.349,1.582 2.314,1.594 1.319,4.239 v 0 c -1.6,4.253 -3.114,8.53 -4.552,12.84 v 0 c -2.081,6.247 -3.877,12.579 -5.646,18.919 v 0 c -1.72,6.158 -3.124,12.394 -4.383,18.663 v 0 c -1.221,6.077 -2.358,12.169 -3.351,18.29 v 0 c -0.801,4.942 -1.533,9.893 -2.112,14.863 v 0 c -0.724,6.195 -1.268,12.406 -1.538,18.641 v 0 c -0.402,9.286 -0.26,18.549 1.102,27.76 v 0 c 0.905,6.115 2.353,12.086 4.94,17.738 v 0 c 2.113,4.615 4.898,8.733 8.985,11.832 v 0 c 4.095,3.103 8.706,4.726 13.891,4.426 v 0 c 3.205,-0.185 6.12,-1.189 8.488,-3.446 v 0 c 2.663,-2.539 3.753,-5.76 3.852,-9.355 v 0 c 0.081,-2.916 -0.49,-5.698 -2.244,-8.087 v 0 c -2.978,-4.054 -7.104,-5.743 -12.049,-5.493 v 0 c -1.644,0.084 -3.134,0.73 -4.414,1.815 v 0 c -2.629,2.228 -3.846,6.56 -2.662,9.801 v 0 c 1.005,2.751 2.854,4.632 5.833,5.168 v 0 c 1.785,0.32 3.234,-0.43 4.228,-2.264 v 0 c -1.028,0.363 -1.855,0.343 -2.679,0.062 v 0 c -1.746,-0.593 -2.879,-2.516 -2.529,-4.303 v 0 c 0.385,-1.97 1.866,-3.06 3.934,-2.903 v 0 c 1.156,0.087 2.157,0.571 3.058,1.247 v 0 c 4.39,3.295 2.715,9.502 -1.398,11.324 v 0 c -1.909,0.846 -3.894,0.973 -5.88,0.515 v 0 c -4.142,-0.955 -7.291,-3.359 -9.579,-6.908 v 0 c -3.474,-5.385 -2.459,-12.815 1.719,-17.091 v 0 c 2.418,-2.474 5.448,-3.705 8.821,-4.136 v 0 c 5.256,-0.672 10.192,0.497 14.882,2.799 v 0 c 5.214,2.561 9.052,6.476 11.175,11.931 v 0 c 2.278,5.851 1.91,11.695 -0.316,17.475 v 0 c -1.662,4.314 -4.467,7.751 -8.453,10.066 v 0 c -4.428,2.572 -9.132,3.631 -14.005,3.631 v 0 c -1.9,0 -3.826,-0.161 -5.771,-0.456 M 231.527,409.948 c -6.856,-4.42 -6.319,-14.338 0.321,-18.119 v 0 c 1.688,-0.961 3.481,-1.626 5.374,-2.042 v 0 c 5.324,-1.168 10.65,-0.848 15.946,0.109 v 0 c 4.402,0.798 8.7,2.028 12.882,3.633 v 0 c 4.186,1.607 8.181,3.572 11.683,6.424 v 0 c 0.971,0.79 1.902,1.624 2.736,2.727 v 0 c -0.496,0.011 -0.747,-0.167 -1.015,-0.301 v 0 c -2.274,-1.137 -4.592,-2.175 -6.984,-3.039 v 0 c -4.103,-1.482 -8.296,-2.622 -12.592,-3.379 v 0 c -3.806,-0.67 -7.628,-1.005 -11.491,-0.618 v 0 c -1.733,0.174 -3.426,0.518 -5.029,1.218 v 0 c -2.286,0.998 -4.04,2.52 -4.787,4.996 v 0 c -0.613,2.034 -0.423,3.912 1.235,5.404 v 0 c 1.47,1.323 3.18,1.623 5.122,0.904 v 0 c 0.021,0.424 -0.154,0.679 -0.315,0.938 v 0 c -1.178,1.904 -2.946,2.873 -5.108,3.204 v 0 c -0.499,0.076 -0.988,0.112 -1.468,0.112 v 0 c -2.36,0 -4.502,-0.876 -6.51,-2.171 M 372.184,389.1 c -1.115,-0.076 -7.941,-0.92 -13.629,-3.448 v 0 c -1.754,-0.781 -3.298,-1.91 -4.627,-3.31 v 0 c -2.807,-2.96 -3.278,-6.792 -1.705,-10.374 v 0 c 1.476,-3.36 5.389,-5.519 9.181,-5.088 v 0 c 3.272,0.373 5.981,2.568 5.358,7.322 v 0 c -0.855,-0.583 -1.624,-1.053 -2.546,-1.215 v 0 c -1.496,-0.264 -2.723,0.211 -3.486,1.538 v 0 c -1.053,1.832 -1.169,3.704 0.045,5.533 v 0 c 1.089,1.638 2.662,2.719 4.344,3.643 v 0 c 0.42,0.23 0.844,0.448 1.273,0.656 v 0 c 6.545,-22.493 8.411,-45.556 7.078,-67.828 v 0 c 0,0 16.677,4.975 22.397,5.864 v 0 c 6.744,1.049 27.267,1.431 27.267,1.431 v 0 c 0.68,0.117 0.9,0.372 0.657,0.771 v 0 l -5.427,8.676 -0.408,0.851 -1.719,3.127 c -0.546,1.66 -1.162,2.958 -1.848,3.893 v 0 c -9.178,-12.003 -35.335,-6.684 -25.905,11.495 v 0 c 3.119,5.354 7.409,7.71 12.87,7.065 v 0 c -2.728,-0.466 -4.12,-2.065 -4.181,-4.792 v 0 c -0.015,-3.511 1.43,-5.807 4.333,-6.89 v 0 c 5.563,-1.303 9.221,4.496 9.175,10.294 v 0 c -0.061,7.793 -6.811,15.585 -24.61,6.145 v 0 c -0.438,-0.515 -0.723,-0.387 -0.854,0.38 v 0 c 0.516,6.226 2.327,11.534 5.437,15.925 v 0 c 5.565,4.896 11.136,5.144 16.71,0.749 v 0 c -0.003,0.525 0.002,1.008 0.016,1.449 v 0 c 0.011,0.44 0.073,0.845 0.187,1.216 v 0 l 1.019,6.357 0.378,1.643 0.666,3.797 c -11.323,-3.058 -23.812,-5.345 -37.446,-6.875 m 52.742,-39.365 c 0.03,-0.172 0.085,-0.38 0.173,-0.629 v 0 c 0.085,-0.248 0.208,-0.578 0.366,-0.99 v 0 c 7.128,-23.25 9.163,-47.166 7.783,-70.232 v 0 c 0,0 16.677,4.975 22.396,5.864 v 0 c 6.745,1.05 27.267,1.431 27.267,1.431 v 0 c 0.681,0.117 0.901,0.372 0.658,0.77 v 0 l -5.428,8.677 -0.408,0.85 -1.719,3.128 c -0.546,1.659 -1.162,2.958 -1.848,3.893 v 0 c -9.176,-12.004 -35.335,-6.684 -25.904,11.495 v 0 c 3.119,5.354 7.408,7.71 12.869,7.065 v 0 c -2.729,-0.466 -4.12,-2.065 -4.18,-4.793 v 0 c -0.016,-3.51 1.429,-5.806 4.333,-6.889 v 0 c 5.563,-1.303 9.221,4.495 9.175,10.294 v 0 c -0.062,7.792 -6.811,15.585 -24.61,6.145 v 0 c -0.438,-0.515 -0.723,-0.387 -0.855,0.38 v 0 c 0.516,6.225 2.327,11.534 5.437,15.925 v 0 c 5.566,4.896 11.136,5.145 16.71,0.749 v 0 c -0.003,0.525 0.003,1.007 0.016,1.449 v 0 c 0.011,0.44 0.073,0.845 0.187,1.216 v 0 l 1.02,6.357 0.377,1.643 0.667,3.797 c -13.248,-3.578 -28.075,-6.11 -44.482,-7.595 m 49.83,-7.941 c -3.189,-0.524 -5.879,-3.186 -6.308,-6.265 v 0 c -0.455,-3.281 0.813,-6.296 3.783,-8.06 v 0 c 1.406,-0.836 2.929,-1.367 4.535,-1.63 v 0 c 0.325,-0.053 0.645,-0.08 0.968,-0.122 v 0 l 0.746,-10.613 12.132,-0.874 1.358,-37.85 -6.406,-0.679 1.845,-10.579 c 0,0 46.898,7.164 42.695,41.956 v 0 c -3.071,25.422 -29.628,23.885 -43.711,21.213 v 0 c -1.586,0.101 -3.165,0.293 -4.727,0.653 v 0 c -1.584,0.364 -3.117,0.882 -4.382,1.965 v 0 c -1.412,1.211 -1.748,2.764 -1.313,4.499 v 0 c 0.315,1.258 1.206,1.928 2.486,2.059 v 0 c 0.789,0.08 1.524,-0.125 2.355,-0.403 v 0 c -0.511,3.484 -2.619,4.821 -4.965,4.821 v 0 c -0.36,0 -0.725,-0.031 -1.091,-0.091 m 23.766,-27.127 c 0,0 22.124,1.694 21.541,-12.2 v 0 C 519.199,281.92 500.856,278.59 500.856,278.59 v 0 z m -101.771,1.264 c -5.003,-0.497 -9.736,-1.912 -14.201,-4.194 v 0 c -5.457,-2.788 -10.065,-6.657 -14.03,-11.306 v 0 c -5.762,-6.757 -9.863,-14.484 -13.125,-22.686 v 0 c -2.492,-6.266 -4.409,-12.714 -5.987,-19.269 v 0 c -2.238,-9.293 -3.712,-18.714 -4.723,-28.21 v 0 c -0.556,-5.206 -0.939,-10.425 -1.211,-15.655 v 0 c -0.239,-4.574 -0.362,-9.153 -0.423,-13.732 v 0 c -0.055,-4.197 -0.04,-8.397 0.098,-12.593 v 0 c 0.011,-0.304 0.184,-0.684 -0.237,-0.944 v 0 c -0.097,0.191 -0.19,0.357 -0.265,0.531 v 0 c -4.29,9.973 -8.121,20.122 -11.686,30.374 v 0 c -2.186,6.289 -4.301,12.599 -6.196,18.983 v 0 c -0.107,0.361 -0.169,0.862 -0.632,0.836 v 0 c -0.473,-0.025 -0.641,-0.492 -0.725,-0.928 v 0 c -0.023,-0.112 -0.03,-0.229 -0.051,-0.343 v 0 c -0.22,-1.211 -0.442,-2.421 -0.662,-3.633 v 0 c -1.812,-9.958 -3.931,-19.853 -6.201,-29.716 v 0 c -1.89,-8.214 -3.815,-16.42 -5.724,-24.629 v 0 c -0.149,-0.643 -0.295,-1.287 -0.444,-1.931 v 0 c -0.236,0.259 -0.296,0.508 -0.334,0.76 v 0 c -0.215,1.446 -0.434,2.892 -0.634,4.341 v 0 c -0.787,5.681 -1.621,11.355 -2.333,17.045 v 0 c -0.86,6.875 -1.623,13.761 -2.177,20.671 v 0 c -0.519,6.49 -0.91,12.98 -0.904,19.495 v 0 c 0.005,4.087 0.129,8.163 0.654,12.22 v 0 c 0.056,0.439 0.331,1.004 -0.087,1.303 v 0 c -0.47,0.337 -0.944,-0.104 -1.367,-0.346 v 0 c -2.622,-1.5 -5.386,-2.644 -8.321,-3.371 v 0 c -2.766,-0.687 -5.557,-1.226 -8.376,-1.653 v 0 c -5.331,-0.808 -10.692,-1.33 -16.061,-1.811 v 0 c -2.911,-0.26 -5.836,-0.402 -8.728,-0.881 v 0 c -5.211,-0.866 -10.23,-2.319 -14.702,-5.202 v 0 c -8.313,-5.361 -12.743,-12.851 -12.119,-22.944 v 0 c 0.203,-3.291 1.287,-6.325 3.205,-9.029 v 0 c 2.918,-4.111 6.958,-6.581 11.764,-7.841 v 0 c 4.385,-1.149 8.785,-0.918 13.133,0.223 v 0 c 3.42,0.896 6.456,2.545 8.838,5.195 v 0 c 3.985,4.432 5.682,9.679 5.379,15.612 v 0 c -0.317,6.213 -4.339,10.849 -10.467,11.881 v 0 c -3.549,0.597 -6.867,-0.047 -9.576,-2.558 v 0 c -2.082,-1.93 -3.235,-4.327 -2.621,-7.248 v 0 c 0.711,-3.392 4.119,-5.489 7.348,-4.615 v 0 c 2.116,0.573 3.323,2.704 2.699,4.767 v 0 c -0.601,1.987 -2.695,3.032 -4.711,2.333 v 0 c -0.388,-0.134 -0.748,-0.352 -1.118,-0.53 v 0 c -0.199,0.299 -0.08,0.565 -0.002,0.81 v 0 c 0.444,1.41 1.402,2.369 2.726,2.966 v 0 c 3.674,1.655 8.01,-0.575 8.794,-4.653 v 0 c 0.726,-3.786 -0.331,-7.183 -3.178,-9.766 v 0 c -3.425,-3.109 -7.505,-3.701 -11.732,-1.932 v 0 c -4.151,1.736 -6.281,5.127 -6.523,9.563 v 0 c -0.266,4.857 1.562,8.956 5.092,12.277 v 0 c 2.329,2.189 5.075,3.724 8.024,4.928 v 0 c 5.441,2.222 11.196,2.683 16.968,3.069 v 0 c 0.475,0.032 0.592,-0.202 0.665,-0.586 v 0 c 0.109,-0.566 0.259,-1.125 0.378,-1.688 v 0 c 1.421,-6.664 2.757,-13.342 4.034,-20.033 v 0 c 1.01,-5.291 1.961,-10.592 2.877,-15.898 v 0 c 0.883,-5.117 1.683,-10.249 2.468,-15.383 v 0 c 0.893,-5.86 1.699,-11.732 2.439,-17.615 v 0 c 0.744,-5.92 1.407,-11.849 1.952,-17.791 v 0 c 0.357,-3.909 0.71,-7.822 0.954,-11.739 v 0 c 0.263,-4.226 0.472,-8.456 0.586,-12.691 v 0 c 0.137,-5.081 0.227,-10.159 -0.019,-15.238 v 0 c -0.046,-0.961 -0.095,-1.926 -0.063,-2.886 v 0 c 0.029,-0.914 0.685,-1.309 1.509,-0.944 v 0 c 0.381,0.17 0.727,0.431 1.068,0.68 v 0 c 6.264,4.566 12.783,8.719 19.78,12.088 v 0 c 1.25,0.6 2.497,1.205 3.735,1.825 v 0 c 1.21,0.606 1.384,0.958 1.195,2.292 v 0 c -0.022,0.153 -0.056,0.303 -0.09,0.454 v 0 c -0.819,3.619 -1.082,7.307 -1.23,10.996 v 0 c -0.123,3.075 -0.06,6.154 0.1,9.235 v 0 c 0.245,4.692 0.624,9.369 1.194,14.034 v 0 c 0.683,5.58 1.567,11.125 2.63,16.644 v 0 c 0.039,0.2 -0.016,0.476 0.366,0.518 v 0 c 0.092,-0.238 0.191,-0.484 0.287,-0.732 v 0 c 2.389,-6.179 4.466,-12.462 6.155,-18.868 v 0 c 2.15,-8.158 3.974,-16.38 4.421,-24.846 v 0 c 0.091,-1.736 0.536,-1.919 2.066,-0.977 v 0 c 3.61,2.219 7.314,4.264 11.218,5.924 v 0 c 3.081,1.312 6.254,2.383 9.394,3.54 v 0 c 2.658,0.978 2.626,1 2.287,3.805 v 0 c -0.546,4.511 -1.004,9.026 -1.377,13.552 v 0 c -0.542,6.563 -0.784,13.141 -1.001,19.719 v 0 c -0.21,6.391 -0.095,12.782 0.167,19.171 v 0 c 0.256,6.192 0.594,12.38 1.081,18.562 v 0 c 0.394,4.991 0.858,9.975 1.473,14.94 v 0 c 0.766,6.19 1.709,12.353 2.926,18.475 v 0 c 1.811,9.116 4.145,18.081 7.652,26.706 v 0 c 2.329,5.727 5.152,11.183 9.006,16.06 v 0 c 3.147,3.984 6.828,7.325 11.533,9.366 v 0 c 4.714,2.043 9.578,2.527 14.544,1.006 v 0 c 3.07,-0.94 5.665,-2.606 7.43,-5.36 v 0 c 1.985,-3.098 2.28,-6.486 1.523,-10.003 v 0 c -0.613,-2.85 -1.827,-5.419 -4.097,-7.323 v 0 c -3.854,-3.231 -8.263,-3.895 -13.007,-2.48 v 0 c -1.578,0.471 -2.873,1.454 -3.858,2.81 v 0 c -2.026,2.788 -2.181,7.286 -0.263,10.153 v 0 c 1.629,2.434 3.871,3.823 6.892,3.637 v 0 c 1.811,-0.111 3.04,-1.184 3.571,-3.202 v 0 c -0.912,0.596 -1.722,0.774 -2.589,0.696 v 0 c -1.836,-0.162 -3.392,-1.761 -3.477,-3.581 v 0 c -0.093,-2.004 1.088,-3.415 3.135,-3.753 v 0 c 1.143,-0.189 2.23,0.043 3.266,0.487 v 0 c 5.045,2.16 4.891,8.587 1.327,11.333 v 0 c -1.655,1.273 -3.554,1.868 -5.59,1.893 v 0 c -4.251,0.055 -7.88,-1.534 -10.944,-4.438 v 0 c -4.652,-4.409 -5.428,-11.868 -2.383,-17.013 v 0 c 1.763,-2.976 4.415,-4.89 7.589,-6.108 v 0 c 4.947,-1.899 10.019,-1.934 15.121,-0.809 v 0 c 5.674,1.25 10.33,4.145 13.685,8.939 v 0 c 3.601,5.146 4.629,10.91 3.836,17.052 v 0 c -0.59,4.586 -2.502,8.591 -5.825,11.783 v 0 c -5.131,4.932 -11.474,7.153 -18.459,7.774 v 0 c -0.794,0.07 -1.586,0.1 -2.376,0.1 v 0 c -1.668,0 -3.331,-0.133 -4.995,-0.298 M 257.175,275.325 c -7.708,-2.669 -9.537,-12.431 -3.983,-17.678 v 0 c 1.412,-1.334 2.996,-2.405 4.736,-3.258 v 0 c 4.894,-2.398 10.144,-3.35 15.517,-3.675 v 0 c 4.465,-0.269 8.934,-0.093 13.376,0.474 v 0 c 4.448,0.569 8.795,1.531 12.873,3.472 v 0 c 1.13,0.536 2.233,1.127 3.305,2 v 0 c -0.479,0.129 -0.766,0.015 -1.058,-0.052 v 0 c -2.479,-0.566 -4.976,-1.024 -7.506,-1.296 v 0 c -4.336,-0.467 -8.681,-0.581 -13.033,-0.297 v 0 c -3.856,0.252 -7.649,0.832 -11.309,2.124 v 0 c -1.644,0.58 -3.207,1.315 -4.598,2.375 v 0 c -1.984,1.512 -3.327,3.406 -3.465,5.989 v 0 c -0.114,2.121 0.515,3.901 2.48,4.957 v 0 c 1.741,0.937 3.475,0.823 5.19,-0.337 v 0 c 0.122,0.408 0.011,0.697 -0.083,0.988 v 0 c -0.693,2.128 -2.181,3.489 -4.203,4.321 v 0 c -1.246,0.514 -2.492,0.734 -3.734,0.734 v 0 c -1.51,0 -3.013,-0.324 -4.505,-0.841 m 172.254,0.006 c -3.227,-0.188 -6.18,-2.556 -6.926,-5.573 v 0 c -0.795,-3.217 0.152,-6.347 2.923,-8.412 v 0 c 1.311,-0.976 2.771,-1.665 4.34,-2.093 v 0 c 6.103,-1.665 12.181,-1.356 18.232,0.293 v 0 c 0.161,0.045 0.382,0.087 0.393,0.411 v 0 c -1.547,-0.084 -3.078,0.076 -4.609,0.211 v 0 c -2.993,0.264 -5.964,0.683 -8.82,1.663 v 0 c -1.537,0.527 -3.007,1.201 -4.152,2.411 v 0 c -1.279,1.351 -1.452,2.931 -0.838,4.611 v 0 c 0.445,1.218 1.401,1.791 2.687,1.789 v 0 c 0.794,-0.002 1.503,-0.284 2.3,-0.646 v 0 c -0.158,3.855 -2.494,5.347 -5.114,5.347 v 0 c -0.138,0 -0.277,-0.004 -0.416,-0.012 m 147.42,-9.246 c -3.815,-0.545 -7.649,-0.853 -11.502,-0.911 v 0 c -2.655,-0.039 -5.311,-0.072 -7.964,0.165 v 0 c -1.139,0.102 -1.425,-0.179 -1.521,-1.336 v 0 c -0.005,-0.076 -0.002,-0.154 -0.006,-0.23 v 0 c -0.282,-6.196 -0.889,-12.36 -1.775,-18.497 v 0 c -0.152,-1.042 -0.345,-2.079 -0.541,-3.249 v 0 c -1.012,0.843 -1.901,1.565 -2.766,2.313 v 0 c -0.64,0.554 -1.296,1.101 -1.862,1.725 v 0 c -1.05,1.156 -1.455,2.529 -1.066,4.067 v 0 c 0.396,1.57 1.964,2.408 3.501,1.92 v 0 c 0.195,-0.063 0.362,-0.285 0.602,-0.127 v 0 c 0.019,2.219 -1.29,3.801 -3.083,4.223 v 0 c -3.241,0.765 -5.858,-0.749 -7.06,-3.24 v 0 c -1.329,-2.754 -0.585,-5.911 1.807,-7.638 v 0 c 0.843,-0.61 1.758,-1.102 2.7,-1.548 v 0 c 2.121,-1.006 4.261,-1.977 6.237,-3.261 v 0 c 0.319,-0.207 0.705,-0.361 0.615,-0.862 v 0 c -0.093,-0.53 -0.171,-1.064 -0.27,-1.593 v 0 c -0.042,-0.228 -0.207,-0.323 -0.426,-0.249 v 0 c -0.29,0.101 -0.571,0.23 -0.856,0.344 v 0 c -2.279,0.913 -4.619,1.441 -7.097,1.289 v 0 c -3.22,-0.199 -6.15,-1.118 -8.435,-3.493 v 0 c -2.947,-3.065 -3.461,-7.754 -1.331,-11.692 v 0 c 2.369,-4.38 7.234,-5.533 11.43,-3.542 v 0 c 1.08,0.512 1.798,1.395 2.069,2.648 v 0 c -0.16,0 -0.273,0.012 -0.38,-0.004 v 0 c -0.113,-0.019 -0.219,-0.084 -0.332,-0.098 v 0 c -1.396,-0.184 -2.617,0.122 -3.461,1.338 v 0 c -1.749,2.524 -0.416,6.183 2.534,6.984 v 0 c 1.653,0.449 3.283,0.227 4.909,-0.167 v 0 c 0.397,-0.096 0.617,-0.27 0.523,-0.715 v 0 c -0.047,-0.225 -0.048,-0.46 -0.083,-0.688 v 0 c -0.51,-3.307 -0.912,-6.631 -1.563,-9.916 v 0 c -1.017,-5.129 -1.81,-10.333 -4.825,-14.814 v 0 c -0.176,-0.26 -0.292,-0.575 -0.007,-0.842 v 0 c 0.261,-0.246 0.5,-0.004 0.739,0.086 v 0 c 0.069,0.027 0.126,0.09 0.193,0.126 v 0 c 4.622,2.472 9.306,2.71 14.063,0.398 v 0 c 0.243,-0.117 0.483,-0.239 0.73,-0.348 v 0 c 0.248,-0.109 0.52,-0.23 0.762,-0.026 v 0 c 0.308,0.259 0.127,0.552 0.008,0.836 v 0 c -1.037,2.463 -1.311,5.05 -1.215,7.691 v 0 c 0.157,4.274 0.749,8.51 1.19,12.759 v 0 c 0.022,0.221 0.019,0.465 0.288,0.617 v 0 c 0.119,-0.051 0.266,-0.098 0.398,-0.172 v 0 c 3.078,-1.702 6.271,-3.124 9.717,-3.9 v 0 c 0.699,-0.157 0.985,-0.492 1.151,-1.191 v 0 c 0.898,-3.782 1.694,-7.588 2.74,-11.332 v 0 c 1.404,-5.022 3.157,-9.903 5.906,-14.368 v 0 c 2.679,-4.348 6.129,-7.891 10.759,-10.181 v 0 c 3.222,-1.595 6.655,-2.367 10.225,-2.602 v 0 c 3.344,-0.22 6.613,0.094 9.755,1.346 v 0 c 7.056,2.815 10.985,9.564 9.847,16.849 v 0 c -1.218,7.799 -8.318,11.069 -13.95,9.928 v 0 c -2.408,-0.487 -4.506,-1.571 -5.999,-3.598 v 0 c -1.841,-2.499 -1.681,-5.903 0.348,-8.088 v 0 c 1.384,-1.486 3.71,-1.966 5.514,-1.068 v 0 c 2.252,1.122 2.709,3.131 1.638,5.243 v 0 c -0.37,0.729 -1.019,1.135 -1.829,1.268 v 0 c -0.846,0.14 -1.658,0.033 -2.544,-0.512 v 0 c 0.249,1.18 0.925,1.773 1.724,2.23 v 0 c 3.028,1.733 6.487,0.397 7.693,-2.917 v 0 c 0.468,-1.288 0.378,-2.573 0.18,-3.873 v 0 c -0.67,-4.423 -4.188,-7.076 -8.63,-6.631 v 0 c -3.219,0.321 -5.745,1.828 -7.824,4.211 v 0 c -1.71,1.96 -3.014,4.184 -4.128,6.519 v 0 c -3.359,7.041 -5.776,14.433 -7.805,21.938 v 0 c -2.151,7.946 -3.877,16.001 -5.453,24.084 v 0 c -0.941,4.834 -1.9,9.666 -2.487,14.56 v 0 c -0.179,1.495 -0.334,1.929 -1.258,1.929 v 0 c -0.298,0 -0.676,-0.046 -1.161,-0.115 m -8.099,-33.353 c -1.611,1.048 -3.167,2.183 -4.766,3.251 v 0 c -0.422,0.281 -0.499,0.602 -0.443,1.07 v 0 c 0.305,2.517 0.567,5.041 0.873,7.558 v 0 c 0.501,4.123 1.021,8.241 1.539,12.36 v 0 c 0.052,0.411 -0.002,0.859 0.342,1.19 v 0 c 1.169,-3.955 6.327,-26.368 6.269,-27.295 v 0 c -1.409,0.364 -2.629,1.095 -3.814,1.866 m -20.87,32.745 c -0.192,-0.012 -0.385,-0.022 -0.576,-0.039 v 0 c -1.457,-0.136 -2.913,-0.273 -4.37,-0.409 v 0 c -4.445,-0.414 -8.896,-0.765 -13.363,-0.831 v 0 c -1.772,-0.027 -3.542,0.026 -5.311,0.109 v 0 c -1.065,0.05 -1.191,-0.081 -1.093,-1.072 v 0 c 0.206,-2.095 -0.282,-4.051 -1.105,-5.948 v 0 c -1.669,-3.844 -4.075,-7.239 -6.515,-10.606 v 0 c -3.093,-4.271 -6.235,-8.506 -9.366,-12.749 v 0 c -0.134,-0.181 -0.162,-0.545 -0.543,-0.464 v 0 c -0.156,0.346 -0.078,0.694 -0.067,1.029 v 0 c 0.144,3.848 0.304,7.695 0.445,11.541 v 0 c 0.109,2.967 0.352,5.922 0.94,8.833 v 0 c 0.438,2.158 1.097,4.246 2.484,6.028 v 0 c 0.574,0.737 1.245,1.364 2.008,1.894 v 0 c 0.235,0.163 0.467,0.339 0.321,0.649 v 0 c -0.152,0.321 -0.457,0.194 -0.709,0.14 v 0 c -0.565,-0.121 -1.12,-0.289 -1.689,-0.376 v 0 c -5.484,-0.84 -11.006,-1.264 -16.545,-1.479 v 0 c -1.694,-0.065 -3.388,-0.08 -5.082,-0.116 v 0 c -0.037,-10e-4 -0.075,-10e-4 -0.112,0 v 0 c -0.235,0.002 -0.475,0.005 -0.61,-0.239 v 0 c -0.208,-0.377 0.138,-0.556 0.336,-0.761 v 0 c 0.649,-0.674 1.145,-1.444 1.531,-2.294 v 0 c 0.723,-1.591 1.114,-3.274 1.402,-4.987 v 0 c 0.673,-3.998 0.794,-8.042 0.895,-12.078 v 0 c 0.146,-5.774 0.164,-11.551 0.21,-17.328 v 0 c 0.032,-4.159 0.051,-8.32 0.018,-12.481 v 0 c -0.036,-4.889 -0.129,-9.785 -0.902,-14.623 v 0 c -0.58,-3.639 -1.078,-7.359 -4.065,-10.048 v 0 c -0.15,-0.136 -0.207,-0.341 -0.086,-0.521 v 0 c 0.125,-0.192 0.327,-0.152 0.518,-0.102 v 0 c 0.71,0.18 1.416,0.366 2.127,0.535 v 0 c 5.707,1.362 11.516,2.038 17.347,2.554 v 0 c 1.687,0.15 3.378,0.264 5.066,0.396 v 0 c 0.275,0.022 0.556,0.055 0.608,0.402 v 0 c 0.043,0.299 -0.205,0.397 -0.409,0.482 v 0 c -1.548,0.664 -2.455,1.942 -3.188,3.367 v 0 c -1.176,2.285 -1.744,4.764 -2.166,7.27 v 0 c -1.125,6.679 -1.019,13.424 -1.03,20.162 v 0 c -10e-4,0.46 0.12,0.724 0.619,0.768 v 0 c 0.574,0.049 1.142,0.184 1.716,0.216 v 0 c 2.204,0.12 4.312,-0.185 6.125,-1.572 v 0 c 1.682,-1.288 2.687,-3.051 3.332,-5.025 v 0 c 0.887,-2.716 1.414,-5.511 1.676,-8.358 v 0 c 0.379,-4.103 0.879,-8.189 1.879,-12.196 v 0 c 0.955,-3.829 2.281,-7.509 4.376,-10.88 v 0 c 2.668,-4.294 6.267,-7.467 11.094,-9.132 v 0 c 4.664,-1.608 9.431,-1.746 14.244,-0.863 v 0 c 3.033,0.557 5.875,1.647 8.26,3.633 v 0 c 5.101,4.25 7.125,9.769 6.084,16.271 v 0 c -0.994,6.21 -6.296,9.94 -12.513,9.056 v 0 c -2.375,-0.336 -4.425,-1.347 -5.888,-3.304 v 0 c -1.553,-2.072 -2.054,-4.372 -1.144,-6.859 v 0 c 1.031,-2.821 4.464,-4.052 7.075,-2.573 v 0 c 1.456,0.824 2.075,2.367 1.537,3.825 v 0 c -0.599,1.621 -1.94,2.394 -3.635,2.101 v 0 c -0.181,-0.032 -0.36,-0.154 -0.549,-0.032 v 0 c 0.126,1.4 1.276,2.643 2.743,2.969 v 0 c 2.202,0.488 4.517,-0.602 5.546,-2.609 v 0 c 2.054,-4.008 0.484,-8.864 -3.579,-10.811 v 0 c -3.27,-1.568 -6.61,-1.231 -9.865,0.054 v 0 c -2.669,1.054 -4.418,3.141 -5.739,5.617 v 0 c -1.744,3.267 -2.616,6.81 -3.25,10.421 v 0 c -0.66,3.752 -0.998,7.557 -1.837,11.279 v 0 c -0.887,3.925 -2.082,7.731 -4.282,11.151 v 0 c -2.536,3.944 -6.013,6.427 -10.765,6.93 v 0 c -0.512,0.055 -1.025,0.089 -1.643,0.141 v 0 c 0.17,0.281 0.235,0.416 0.324,0.532 v 0 c 4.843,6.284 9.868,12.414 15.276,18.224 v 0 c 2.965,3.187 6.014,6.291 9.257,9.198 v 0 c 2.036,1.825 4.132,3.58 6.474,5.014 v 0 c 0.25,0.152 0.638,0.258 0.491,0.66 v 0 c -0.098,0.271 -0.334,0.322 -0.582,0.322 v 0 c -0.07,0 -0.141,-0.004 -0.211,-0.008 m -160.311,-2.052 c -2.981,-0.191 -5.895,-0.67 -8.663,-1.815 v 0 c -4.862,-2.013 -7.903,-5.49 -8.52,-10.849 v 0 c -0.384,-3.333 0.328,-6.373 2.996,-8.556 v 0 c 4.196,-3.43 8.97,-4.163 14.115,-2.49 v 0 c 0.203,0.067 0.455,0.131 0.495,0.423 v 0 c -0.189,0.302 -0.512,0.454 -0.782,0.667 v 0 c -4.293,3.368 -4.235,10.538 0.913,13.391 v 0 c 2.782,1.544 5.795,2.077 8.907,1.971 v 0 c 4.008,-0.137 7.945,-0.899 11.875,-1.666 v 0 c 6.835,-1.334 13.619,-2.952 20.553,-3.739 v 0 c 0.89,-0.102 0.904,-0.132 1.025,-1.014 v 0 c 0.899,-6.487 1.359,-13.015 1.774,-19.546 v 0 c 0.281,-4.458 0.486,-8.921 0.524,-13.388 v 0 c 0.064,-7.623 0.073,-15.248 -0.725,-22.848 v 0 c -0.492,-4.678 -1.154,-9.324 -2.55,-13.829 v 0 c -0.822,-2.656 -1.839,-5.232 -3.637,-7.418 v 0 c -0.183,-0.224 -0.504,-0.5 -0.251,-0.797 v 0 c 0.242,-0.285 0.576,-0.015 0.852,0.08 v 0 c 3.491,1.2 6.975,2.423 10.506,3.507 v 0 c 4.379,1.344 8.764,2.664 13.298,3.407 v 0 c 0.168,0.027 0.397,0.008 0.433,0.341 v 0 c -1.227,0.931 -1.809,2.316 -2.317,3.729 v 0 c -0.482,1.341 -0.832,2.724 -1.121,4.12 v 0 c -1.356,6.579 -1.864,13.257 -2.221,19.946 v 0 c -0.178,3.345 -0.198,6.697 -0.308,10.046 v 0 c -0.126,3.812 -0.01,7.621 0.063,11.482 v 0 c 0.368,-0.021 0.417,-0.229 0.499,-0.388 v 0 c 0.656,-1.263 1.325,-2.521 1.952,-3.8 v 0 c 4.431,-9.035 8.02,-18.406 11.155,-27.957 v 0 c 1.44,-4.389 2.787,-8.804 3.858,-13.3 v 0 c 0.312,-1.311 0.547,-1.453 1.853,-1.076 v 0 c 1.999,0.578 4.032,1.005 6.067,1.429 v 0 c 3.396,0.709 6.814,1.257 10.268,1.59 v 0 c 1.133,0.109 1.397,0.434 1.283,1.576 v 0 c -0.045,0.459 -0.152,0.91 -0.207,1.369 v 0 c -0.72,6.047 -0.925,12.127 -1.056,18.205 v 0 c -0.162,7.468 -0.186,14.938 0.069,22.409 v 0 c 0.134,3.926 0.256,7.851 0.478,11.771 v 0 c 0.24,4.269 0.544,8.535 1.233,12.756 v 0 c 0.425,2.602 0.655,5.288 2.319,7.525 v 0 c 0.233,0.314 0.044,0.616 -0.342,0.609 v 0 c -0.151,-0.003 -0.302,-0.052 -0.451,-0.091 v 0 c -5.875,-1.54 -11.861,-2.253 -17.921,-2.435 v 0 c -1.077,-0.033 -2.159,0.023 -3.228,-0.157 v 0 c -0.259,-0.044 -0.575,0.008 -0.634,-0.356 v 0 c -0.046,-0.287 0.186,-0.404 0.395,-0.496 v 0 c 1.659,-0.737 2.584,-2.143 3.332,-3.69 v 0 c 0.789,-1.637 1.311,-3.37 1.709,-5.14 v 0 c 1.354,-6.045 1.667,-12.193 1.812,-18.356 v 0 c 0.107,-4.583 -0.159,-9.164 -0.218,-13.746 v 0 c -0.007,-0.44 -0.001,-0.88 -0.001,-1.414 v 0 c -0.425,0.207 -0.483,0.489 -0.591,0.713 v 0 c -1.016,2.117 -2.066,4.219 -3.019,6.363 v 0 c -4.454,10.029 -8.386,20.264 -12.02,30.617 v 0 c -0.292,0.833 -0.548,1.681 -0.832,2.519 v 0 c -0.374,1.101 -0.616,1.223 -1.688,0.87 v 0 c -0.074,-0.024 -0.148,-0.047 -0.219,-0.073 v 0 c -3.61,-1.354 -7.374,-1.887 -11.197,-2.028 v 0 c -5.973,-0.218 -11.82,0.668 -17.58,2.182 v 0 c -4.578,1.204 -9.052,2.759 -13.594,4.083 v 0 c -5.823,1.695 -11.712,2.857 -17.762,2.857 v 0 c -0.981,0 -1.966,-0.031 -2.956,-0.095 m 8.049,-16.345 c -1.814,-1.223 -3.326,-2.736 -4.283,-4.74 v 0 c -0.107,-0.227 -0.343,-0.446 -0.092,-0.769 v 0 c 0.272,-0.033 0.574,-0.087 0.877,-0.1 v 0 c 2.216,-0.095 4.211,-0.835 6.044,-2.054 v 0 c 2.582,-1.718 4.32,-4.144 5.655,-6.873 v 0 c 1.915,-3.913 2.878,-8.107 3.471,-12.394 v 0 c 0.783,-5.666 0.873,-11.359 0.604,-17.061 v 0 c -0.213,-4.504 -0.686,-8.979 -1.755,-13.374 v 0 c -0.784,-3.226 -1.811,-6.363 -3.512,-9.241 v 0 c -1.253,-2.117 -2.782,-3.971 -4.975,-5.189 v 0 c -2.792,-1.552 -5.795,-1.14 -8.059,1.103 v 0 c -1.451,1.439 -2.403,3.188 -3.127,5.073 v 0 c -1.618,4.219 -2.166,8.641 -2.413,13.11 v 0 c -0.232,4.199 -0.144,8.39 0.371,12.567 v 0 c 0.403,3.251 0.941,6.474 2.037,9.577 v 0 c 0.194,0.55 0.335,1.141 0.762,1.607 v 0 c 0.24,-0.256 0.18,-0.5 0.229,-0.716 v 0 c 0.875,-3.933 4.35,-6.592 8.354,-6.337 v 0 c 2.452,0.156 4.515,1.084 5.622,3.415 v 0 c 0.855,1.8 0.969,3.67 -0.267,5.375 v 0 c -1.201,1.657 -3.301,2.174 -5.164,1.384 v 0 c -1.813,-0.769 -2.811,-2.69 -2.479,-4.741 v 0 c 0.048,-0.305 0.287,-0.62 0.063,-0.97 v 0 c -0.72,0.155 -1.077,0.661 -1.399,1.184 v 0 c -1.209,1.958 -1.506,4.104 -1.146,6.333 v 0 c 0.539,3.315 2.85,5.481 6.183,5.925 v 0 c 0.496,0.065 0.992,0.056 1.497,0.046 v 0 c 0.236,-0.004 0.474,-0.009 0.715,-0.005 v 0 c 0.092,0.498 -0.078,0.81 -0.211,1.125 v 0 c -1.262,2.985 -3.495,4.83 -6.639,5.535 v 0 c -2.342,0.525 -4.668,0.324 -6.95,-0.387 v 0 c -4.365,-1.36 -7.664,-4.188 -10.443,-7.685 v 0 c -3.127,-3.939 -5.263,-8.406 -6.719,-13.196 v 0 c -2.97,-9.771 -3.284,-19.692 -1.482,-29.697 v 0 c 0.95,-5.278 2.713,-10.267 5.877,-14.668 v 0 c 2.917,-4.06 6.682,-6.981 11.518,-8.439 v 0 c 3.293,-0.994 6.637,-1.176 10.053,-0.845 v 0 c 6.378,0.618 11.844,3.206 16.492,7.541 v 0 c 4.235,3.949 7.258,8.75 9.539,14.038 v 0 c 3.715,8.612 5.169,17.693 5.492,26.993 v 0 c 0.157,4.505 -0.042,9 -0.587,13.483 v 0 c -0.603,4.956 -1.665,9.785 -3.721,14.355 v 0 c -1.401,3.117 -3.26,5.911 -5.82,8.227 v 0 c -3.084,2.788 -7.087,4.244 -11.113,4.244 v 0 c -3.164,0.001 -6.341,-0.899 -9.099,-2.759" /></g></g></g></g><g
       id="g104"><g
         clip-path="url(#clipPath110)"
         id="g106"><g
           transform="translate(489.5794,377.0327)"
           id="g112"><path
             id="path114"
             style="fill:#040606;fill-opacity:1;fill-rule:nonzero;stroke:none"
             d="M 0,0 C -0.363,0.2 -0.729,0.397 -1.09,0.602 -1.437,0.8 -1.778,1.007 -2.067,1.31 -1.364,0.914 -0.66,0.518 0.044,0.122 Z m 48.154,-13.771 c -0.339,0.082 -0.474,0.13 -0.614,0.147 -4.144,0.504 -8.167,1.53 -12.104,2.889 -5.368,1.852 -10.736,3.702 -16.076,5.629 -2.342,0.845 -4.63,1.848 -6.919,2.834 -1.596,0.688 -3.103,1.612 -4.737,2.181 -5.167,1.799 -10.105,4.079 -14.888,6.716 -6.66,3.673 -12.918,7.958 -18.984,12.529 -1.515,1.141 -2.925,2.433 -4.498,3.484 -2.077,1.388 -4.099,2.835 -5.9,4.562 -1.775,1.7 -3.513,3.437 -5.261,5.165 -0.697,0.845 -1.795,2.082 -2.132,1.935 -0.3,-0.131 -0.505,-0.288 -0.741,-0.538 -10e-4,10e-4 -0.002,0.002 -0.003,0.003 -0.932,-0.843 -1.472,-1.858 -1.882,-2.942 -0.58,-1.536 -1.124,-3.085 -1.672,-4.634 -0.174,-0.493 -0.381,-0.984 -0.526,-1.484 -0.193,-0.311 -0.361,-0.413 -0.728,-0.74 -0.586,-0.523 -1.175,-0.855 -1.468,-1.48 -0.199,-0.42 -0.642,-0.945 -0.634,-0.86 -1.692,-1.886 -2.386,-4.149 -3.114,-6.317 0.621,-0.572 1.233,-1.073 1.767,-1.647 0.537,-0.578 1.016,-1.213 1.485,-1.848 2.336,-3.158 5.021,-6.001 7.909,-8.648 5.217,-4.786 11.056,-8.724 17.174,-12.239 4.51,-2.591 9.118,-5.011 13.69,-7.493 1.12,-0.608 2.228,-1.281 3.42,-1.706 2.366,-0.846 4.802,-1.498 7.181,-2.307 4.245,-1.443 8.48,-2.91 12.697,-4.428 6.584,-2.369 13.154,-4.775 19.888,-6.697 2.775,-0.792 5.588,-1.367 8.458,-1.681 0.581,-0.064 0.849,0.103 0.979,0.663 0.065,0.285 1.455,6.177 1.86,7.833 0.023,0.093 0.046,0.178 0.07,0.266 0.194,0.395 0.313,0.846 0.42,1.343 0.329,0.87 0.777,1.711 1.485,2.801 1.13,1.452 2.242,2.92 3.319,4.412 0.067,0.091 0.119,0.194 0.178,0.292 0.067,0.08 0.128,0.156 0.196,0.236 l -0.064,-0.018 c 0.283,0.547 0.485,1.167 0.769,1.787" /></g><g
           transform="translate(555.7142,332.1421)"
           id="g116"><path
             id="path118"
             style="fill:#040606;fill-opacity:1;fill-rule:nonzero;stroke:none"
             d="m 0,0 c -0.171,0.148 -0.348,0.288 -0.525,0.425 -0.614,0.744 -2.163,1.994 -2.866,2.377 -0.679,0.37 -1.189,0.603 -1.405,0.697 -0.045,0.083 -0.113,0.159 -0.237,0.223 -0.953,0.491 -1.855,1.115 -2.853,1.479 -3.218,1.174 -6.459,2.296 -9.718,3.349 -1.196,0.386 -2.493,0.445 -3.703,0.795 -1.352,0.391 -2.659,0.943 -3.999,1.429 0,0 -0.337,-0.132 -1.275,-0.159 -0.939,-0.028 -10.647,1.71 -10.751,1.744 -2.212,0.738 -4.438,1.439 -6.636,2.215 -4.284,1.511 -8.557,3.054 -12.828,4.603 -4.651,1.686 -9.288,3.414 -13.945,5.086 -3.166,1.135 -6.377,2.148 -9.53,3.32 -3.406,1.265 -6.599,2.987 -9.722,4.836 -5.588,3.31 -10.77,7.189 -15.824,11.249 -4.362,3.504 -8.392,7.31 -11.602,11.95 -0.987,1.427 -4.269,4.552 -4.269,4.552 -0.007,0.326 0.561,2.131 0.399,2.433 -0.45,0.835 -1.049,1.563 -1.863,2.116 -0.684,0.465 -1.29,1.044 -1.927,1.577 -0.495,0.414 -0.99,0.829 -1.484,1.244 -0.966,0.917 -1.782,1.674 -2.11,1.934 -0.434,0.342 -1.677,1.34 -3.144,2.464 -0.439,0.368 -0.877,0.736 -1.316,1.103 -0.451,0.376 -0.925,0.693 -1.439,0.938 -0.615,0.436 -1.209,0.841 -1.75,1.185 0.003,0.003 0.006,0.007 0.009,0.01 -0.035,0.016 -0.069,0.033 -0.104,0.048 -0.521,0.328 -0.991,0.597 -1.366,0.767 -0.623,0.282 -1.136,0.465 -1.579,0.595 -0.172,0.08 -2.135,0.648 -2.749,0.697 -1.172,0.094 -2.069,-0.436 -2.529,-1.507 -0.222,-0.516 -0.392,-1.078 -0.454,-1.633 -0.231,-2.078 0.033,-4.082 0.685,-6.02 0.259,-0.899 0.571,-1.722 0.883,-2.236 0.939,-1.547 3.313,-4.638 4.638,-6.239 0.911,-1.101 3.203,-3.192 4.549,-4.393 0.242,-0.305 0.511,-0.593 0.824,-0.855 3.754,-3.149 7.476,-6.337 11.201,-9.522 1.444,-1.234 2.795,-2.586 4.307,-3.729 1.918,-1.452 3.943,-2.767 5.944,-4.105 7.646,-5.106 15.524,-9.831 23.553,-14.303 2.026,-1.129 3.976,-2.391 6.132,-3.294 3.794,-1.589 7.547,-3.277 11.328,-4.894 3.503,-1.499 6.991,-3.04 10.541,-4.418 4.336,-1.683 8.719,-3.246 13.102,-4.803 2.215,-0.786 4.445,-1.557 6.719,-2.137 4.341,-1.107 8.719,-2.072 13.081,-3.098 1.022,-0.241 2.035,-0.641 3.063,-0.718 0.468,-0.252 1.067,-0.5 1.939,-0.772 1.728,-0.539 7.51,-1.954 10.47,-2.597 -0.002,-0.009 -10e-4,-0.014 -0.004,-0.024 0.619,-0.15 1.166,-0.298 1.72,-0.414 2.008,-0.423 4.023,-0.766 6.079,-0.35 2.406,0.487 3.785,2.041 4.448,4.32 C 0.148,-0.325 0.1,-0.086 0,0" /></g></g></g></g></svg>